G75*
%MOIN*%
%OFA0B0*%
%FSLAX24Y24*%
%IPPOS*%
%LPD*%
%AMOC8*
5,1,8,0,0,1.08239X$1,22.5*
%
%ADD10C,0.0000*%
%ADD11C,0.0060*%
%ADD12C,0.0650*%
%ADD13C,0.0520*%
%ADD14C,0.0740*%
%ADD15OC8,0.0660*%
%ADD16C,0.0515*%
%ADD17OC8,0.0740*%
%ADD18C,0.0520*%
%ADD19C,0.0160*%
%ADD20C,0.0300*%
%ADD21C,0.0120*%
D10*
X000310Y001680D02*
X000310Y011176D01*
X023430Y011180D01*
X023430Y001680D01*
X000310Y001680D01*
X000580Y002680D02*
X000582Y002729D01*
X000588Y002777D01*
X000598Y002825D01*
X000612Y002872D01*
X000629Y002918D01*
X000650Y002962D01*
X000675Y003004D01*
X000703Y003044D01*
X000735Y003082D01*
X000769Y003117D01*
X000806Y003149D01*
X000845Y003178D01*
X000887Y003204D01*
X000931Y003226D01*
X000976Y003244D01*
X001023Y003259D01*
X001070Y003270D01*
X001119Y003277D01*
X001168Y003280D01*
X001217Y003279D01*
X001265Y003274D01*
X001314Y003265D01*
X001361Y003252D01*
X001407Y003235D01*
X001451Y003215D01*
X001494Y003191D01*
X001535Y003164D01*
X001573Y003133D01*
X001609Y003100D01*
X001641Y003064D01*
X001671Y003025D01*
X001698Y002984D01*
X001721Y002940D01*
X001740Y002895D01*
X001756Y002849D01*
X001768Y002802D01*
X001776Y002753D01*
X001780Y002704D01*
X001780Y002656D01*
X001776Y002607D01*
X001768Y002558D01*
X001756Y002511D01*
X001740Y002465D01*
X001721Y002420D01*
X001698Y002376D01*
X001671Y002335D01*
X001641Y002296D01*
X001609Y002260D01*
X001573Y002227D01*
X001535Y002196D01*
X001494Y002169D01*
X001451Y002145D01*
X001407Y002125D01*
X001361Y002108D01*
X001314Y002095D01*
X001265Y002086D01*
X001217Y002081D01*
X001168Y002080D01*
X001119Y002083D01*
X001070Y002090D01*
X001023Y002101D01*
X000976Y002116D01*
X000931Y002134D01*
X000887Y002156D01*
X000845Y002182D01*
X000806Y002211D01*
X000769Y002243D01*
X000735Y002278D01*
X000703Y002316D01*
X000675Y002356D01*
X000650Y002398D01*
X000629Y002442D01*
X000612Y002488D01*
X000598Y002535D01*
X000588Y002583D01*
X000582Y002631D01*
X000580Y002680D01*
X000580Y010180D02*
X000582Y010229D01*
X000588Y010277D01*
X000598Y010325D01*
X000612Y010372D01*
X000629Y010418D01*
X000650Y010462D01*
X000675Y010504D01*
X000703Y010544D01*
X000735Y010582D01*
X000769Y010617D01*
X000806Y010649D01*
X000845Y010678D01*
X000887Y010704D01*
X000931Y010726D01*
X000976Y010744D01*
X001023Y010759D01*
X001070Y010770D01*
X001119Y010777D01*
X001168Y010780D01*
X001217Y010779D01*
X001265Y010774D01*
X001314Y010765D01*
X001361Y010752D01*
X001407Y010735D01*
X001451Y010715D01*
X001494Y010691D01*
X001535Y010664D01*
X001573Y010633D01*
X001609Y010600D01*
X001641Y010564D01*
X001671Y010525D01*
X001698Y010484D01*
X001721Y010440D01*
X001740Y010395D01*
X001756Y010349D01*
X001768Y010302D01*
X001776Y010253D01*
X001780Y010204D01*
X001780Y010156D01*
X001776Y010107D01*
X001768Y010058D01*
X001756Y010011D01*
X001740Y009965D01*
X001721Y009920D01*
X001698Y009876D01*
X001671Y009835D01*
X001641Y009796D01*
X001609Y009760D01*
X001573Y009727D01*
X001535Y009696D01*
X001494Y009669D01*
X001451Y009645D01*
X001407Y009625D01*
X001361Y009608D01*
X001314Y009595D01*
X001265Y009586D01*
X001217Y009581D01*
X001168Y009580D01*
X001119Y009583D01*
X001070Y009590D01*
X001023Y009601D01*
X000976Y009616D01*
X000931Y009634D01*
X000887Y009656D01*
X000845Y009682D01*
X000806Y009711D01*
X000769Y009743D01*
X000735Y009778D01*
X000703Y009816D01*
X000675Y009856D01*
X000650Y009898D01*
X000629Y009942D01*
X000612Y009988D01*
X000598Y010035D01*
X000588Y010083D01*
X000582Y010131D01*
X000580Y010180D01*
X021830Y010180D02*
X021832Y010229D01*
X021838Y010277D01*
X021848Y010325D01*
X021862Y010372D01*
X021879Y010418D01*
X021900Y010462D01*
X021925Y010504D01*
X021953Y010544D01*
X021985Y010582D01*
X022019Y010617D01*
X022056Y010649D01*
X022095Y010678D01*
X022137Y010704D01*
X022181Y010726D01*
X022226Y010744D01*
X022273Y010759D01*
X022320Y010770D01*
X022369Y010777D01*
X022418Y010780D01*
X022467Y010779D01*
X022515Y010774D01*
X022564Y010765D01*
X022611Y010752D01*
X022657Y010735D01*
X022701Y010715D01*
X022744Y010691D01*
X022785Y010664D01*
X022823Y010633D01*
X022859Y010600D01*
X022891Y010564D01*
X022921Y010525D01*
X022948Y010484D01*
X022971Y010440D01*
X022990Y010395D01*
X023006Y010349D01*
X023018Y010302D01*
X023026Y010253D01*
X023030Y010204D01*
X023030Y010156D01*
X023026Y010107D01*
X023018Y010058D01*
X023006Y010011D01*
X022990Y009965D01*
X022971Y009920D01*
X022948Y009876D01*
X022921Y009835D01*
X022891Y009796D01*
X022859Y009760D01*
X022823Y009727D01*
X022785Y009696D01*
X022744Y009669D01*
X022701Y009645D01*
X022657Y009625D01*
X022611Y009608D01*
X022564Y009595D01*
X022515Y009586D01*
X022467Y009581D01*
X022418Y009580D01*
X022369Y009583D01*
X022320Y009590D01*
X022273Y009601D01*
X022226Y009616D01*
X022181Y009634D01*
X022137Y009656D01*
X022095Y009682D01*
X022056Y009711D01*
X022019Y009743D01*
X021985Y009778D01*
X021953Y009816D01*
X021925Y009856D01*
X021900Y009898D01*
X021879Y009942D01*
X021862Y009988D01*
X021848Y010035D01*
X021838Y010083D01*
X021832Y010131D01*
X021830Y010180D01*
X021830Y002680D02*
X021832Y002729D01*
X021838Y002777D01*
X021848Y002825D01*
X021862Y002872D01*
X021879Y002918D01*
X021900Y002962D01*
X021925Y003004D01*
X021953Y003044D01*
X021985Y003082D01*
X022019Y003117D01*
X022056Y003149D01*
X022095Y003178D01*
X022137Y003204D01*
X022181Y003226D01*
X022226Y003244D01*
X022273Y003259D01*
X022320Y003270D01*
X022369Y003277D01*
X022418Y003280D01*
X022467Y003279D01*
X022515Y003274D01*
X022564Y003265D01*
X022611Y003252D01*
X022657Y003235D01*
X022701Y003215D01*
X022744Y003191D01*
X022785Y003164D01*
X022823Y003133D01*
X022859Y003100D01*
X022891Y003064D01*
X022921Y003025D01*
X022948Y002984D01*
X022971Y002940D01*
X022990Y002895D01*
X023006Y002849D01*
X023018Y002802D01*
X023026Y002753D01*
X023030Y002704D01*
X023030Y002656D01*
X023026Y002607D01*
X023018Y002558D01*
X023006Y002511D01*
X022990Y002465D01*
X022971Y002420D01*
X022948Y002376D01*
X022921Y002335D01*
X022891Y002296D01*
X022859Y002260D01*
X022823Y002227D01*
X022785Y002196D01*
X022744Y002169D01*
X022701Y002145D01*
X022657Y002125D01*
X022611Y002108D01*
X022564Y002095D01*
X022515Y002086D01*
X022467Y002081D01*
X022418Y002080D01*
X022369Y002083D01*
X022320Y002090D01*
X022273Y002101D01*
X022226Y002116D01*
X022181Y002134D01*
X022137Y002156D01*
X022095Y002182D01*
X022056Y002211D01*
X022019Y002243D01*
X021985Y002278D01*
X021953Y002316D01*
X021925Y002356D01*
X021900Y002398D01*
X021879Y002442D01*
X021862Y002488D01*
X021848Y002535D01*
X021838Y002583D01*
X021832Y002631D01*
X021830Y002680D01*
D11*
X009403Y002710D02*
X008976Y002710D01*
X009403Y003137D01*
X009403Y003244D01*
X009296Y003351D01*
X009083Y003351D01*
X008976Y003244D01*
X008760Y002817D02*
X008760Y002710D01*
X008654Y002710D01*
X008654Y002817D01*
X008760Y002817D01*
X008436Y002817D02*
X008329Y002710D01*
X008116Y002710D01*
X008009Y002817D01*
X008436Y003244D01*
X008436Y002817D01*
X008436Y003244D02*
X008329Y003351D01*
X008116Y003351D01*
X008009Y003244D01*
X008009Y002817D01*
X007148Y003137D02*
X007041Y003137D01*
X006827Y002924D01*
X006827Y003137D02*
X006827Y002710D01*
X006610Y002710D02*
X006183Y003137D01*
X005860Y003351D02*
X005860Y002710D01*
X005753Y002710D02*
X005967Y002710D01*
X006183Y002710D02*
X006610Y003137D01*
X005860Y003351D02*
X005753Y003351D01*
X005536Y003030D02*
X005536Y002817D01*
X005429Y002710D01*
X005108Y002710D01*
X005108Y002496D02*
X005108Y003137D01*
X005429Y003137D01*
X005536Y003030D01*
X004892Y002710D02*
X004679Y002710D01*
X004786Y002710D02*
X004786Y003351D01*
X004892Y003351D02*
X004679Y003351D01*
X004461Y003244D02*
X004355Y003351D01*
X004034Y003351D01*
X004034Y002710D01*
X004355Y002710D01*
X004461Y002817D01*
X004461Y003244D01*
X003818Y003351D02*
X003605Y003351D01*
X003711Y003351D02*
X003711Y002710D01*
X003605Y002710D02*
X003818Y002710D01*
X003387Y002710D02*
X003387Y003351D01*
X003174Y003137D01*
X002960Y003351D01*
X002960Y002710D01*
D12*
X014680Y003180D03*
X015680Y003180D03*
X019680Y003180D03*
X020680Y003180D03*
D13*
X015680Y004660D02*
X015680Y005180D01*
X014680Y005180D02*
X014680Y004660D01*
X013680Y004660D02*
X013680Y005180D01*
X012680Y005180D02*
X012680Y004660D01*
X010680Y004920D02*
X010680Y005440D01*
X009680Y005440D02*
X009680Y004920D01*
X008680Y004920D02*
X008680Y005440D01*
X007680Y005440D02*
X007680Y004920D01*
X006680Y004920D02*
X006680Y005440D01*
X005680Y005440D02*
X005680Y004920D01*
X004680Y004920D02*
X004680Y005440D01*
X004680Y007920D02*
X004680Y008440D01*
X005680Y008440D02*
X005680Y007920D01*
X006680Y007920D02*
X006680Y008440D01*
X007680Y008440D02*
X007680Y007920D01*
X008680Y007920D02*
X008680Y008440D01*
X009680Y008440D02*
X009680Y007920D01*
X010680Y007920D02*
X010680Y008440D01*
X012680Y008180D02*
X012680Y008700D01*
X013680Y008700D02*
X013680Y008180D01*
X014680Y008180D02*
X014680Y008700D01*
X015680Y008700D02*
X015680Y008180D01*
D14*
X013250Y003180D03*
X012110Y003180D03*
X022180Y004360D03*
X022180Y005500D03*
D15*
X019180Y004680D03*
X017680Y004680D03*
X017680Y008680D03*
X019180Y008680D03*
D16*
X020423Y007680D02*
X020937Y007680D01*
X020937Y006680D02*
X020423Y006680D01*
X020423Y005680D02*
X020937Y005680D01*
D17*
X002680Y005180D03*
X002680Y006180D03*
X002680Y007180D03*
X002680Y008180D03*
X001680Y008180D03*
X001680Y007180D03*
X001680Y006180D03*
X001680Y005180D03*
D18*
X017430Y003180D03*
X018430Y003180D03*
D19*
X018784Y003533D02*
X019319Y003533D01*
X019295Y003509D02*
X019351Y003565D01*
X019415Y003612D01*
X019486Y003648D01*
X019562Y003673D01*
X019640Y003685D01*
X019680Y003685D01*
X019680Y003180D01*
X019680Y003180D01*
X019175Y003180D01*
X019175Y003220D01*
X019187Y003298D01*
X019212Y003374D01*
X019248Y003445D01*
X019295Y003509D01*
X019212Y003375D02*
X018891Y003375D01*
X018854Y003463D02*
X018930Y003279D01*
X018930Y003081D01*
X018854Y002897D01*
X018713Y002756D01*
X018529Y002680D01*
X018331Y002680D01*
X018147Y002756D01*
X018006Y002897D01*
X017930Y003081D01*
X017930Y003279D01*
X018006Y003463D01*
X018080Y003537D01*
X018080Y003785D01*
X017755Y004110D01*
X017444Y004110D01*
X017110Y004444D01*
X017110Y004916D01*
X017444Y005250D01*
X017916Y005250D01*
X018250Y004916D01*
X018250Y004605D01*
X018727Y004128D01*
X018780Y004000D01*
X018780Y003537D01*
X018854Y003463D01*
X018780Y003692D02*
X020330Y003692D01*
X020330Y003629D02*
X020330Y005183D01*
X020324Y005183D01*
X020141Y005258D01*
X020001Y005398D01*
X019925Y005581D01*
X019925Y005779D01*
X020001Y005962D01*
X020141Y006102D01*
X020324Y006177D01*
X021036Y006177D01*
X021219Y006102D01*
X021291Y006030D01*
X021866Y006030D01*
X022059Y006110D01*
X022301Y006110D01*
X022526Y006017D01*
X022697Y005846D01*
X022790Y005621D01*
X022790Y005379D01*
X022697Y005154D01*
X022526Y004983D01*
X022313Y004895D01*
X022391Y004870D01*
X022468Y004830D01*
X022538Y004780D01*
X022600Y004718D01*
X022650Y004648D01*
X022690Y004571D01*
X022716Y004489D01*
X022730Y004403D01*
X022730Y004380D01*
X022200Y004380D01*
X022200Y004340D01*
X022730Y004340D01*
X022730Y004317D01*
X022716Y004231D01*
X022690Y004149D01*
X022650Y004072D01*
X022600Y004002D01*
X022538Y003940D01*
X022468Y003890D01*
X022391Y003850D01*
X022309Y003824D01*
X022223Y003810D01*
X022200Y003810D01*
X022200Y004340D01*
X022160Y004340D01*
X022160Y004380D01*
X021630Y004380D01*
X021630Y004403D01*
X021644Y004489D01*
X021670Y004571D01*
X021710Y004648D01*
X021760Y004718D01*
X021822Y004780D01*
X021892Y004830D01*
X021969Y004870D01*
X022047Y004895D01*
X021834Y004983D01*
X021663Y005154D01*
X021590Y005330D01*
X021291Y005330D01*
X021219Y005258D01*
X021036Y005183D01*
X021030Y005183D01*
X021030Y003629D01*
X021159Y003500D01*
X021245Y003292D01*
X021245Y003068D01*
X021159Y002860D01*
X021000Y002701D01*
X020792Y002615D01*
X020568Y002615D01*
X020360Y002701D01*
X020201Y002860D01*
X020148Y002987D01*
X020148Y002986D01*
X020112Y002915D01*
X020065Y002851D01*
X020009Y002795D01*
X019945Y002748D01*
X019874Y002712D01*
X019798Y002687D01*
X019720Y002675D01*
X019680Y002675D01*
X019640Y002675D01*
X019562Y002687D01*
X019486Y002712D01*
X019415Y002748D01*
X019351Y002795D01*
X019295Y002851D01*
X019248Y002915D01*
X019212Y002986D01*
X019187Y003062D01*
X019175Y003140D01*
X019175Y003180D01*
X019680Y003180D01*
X019680Y003180D01*
X019680Y003685D01*
X019720Y003685D01*
X019798Y003673D01*
X019874Y003648D01*
X019945Y003612D01*
X020009Y003565D01*
X020065Y003509D01*
X020112Y003445D01*
X020148Y003374D01*
X020148Y003373D01*
X020201Y003500D01*
X020330Y003629D01*
X020234Y003533D02*
X020041Y003533D01*
X020148Y003375D02*
X020149Y003375D01*
X019680Y003375D02*
X019680Y003375D01*
X019680Y003533D02*
X019680Y003533D01*
X019680Y003216D02*
X019680Y003216D01*
X019680Y003180D02*
X019680Y002675D01*
X019680Y003180D01*
X019680Y003180D01*
X019680Y003058D02*
X019680Y003058D01*
X019680Y002899D02*
X019680Y002899D01*
X019680Y002741D02*
X019680Y002741D01*
X019430Y002741D02*
X018676Y002741D01*
X018855Y002899D02*
X019260Y002899D01*
X019189Y003058D02*
X018920Y003058D01*
X018930Y003216D02*
X019175Y003216D01*
X018780Y003850D02*
X020330Y003850D01*
X020330Y004009D02*
X018776Y004009D01*
X018688Y004167D02*
X018887Y004167D01*
X018944Y004110D02*
X018610Y004444D01*
X018610Y004916D01*
X018830Y005136D01*
X018830Y005613D01*
X018750Y005580D01*
X017030Y005580D01*
X017030Y004325D01*
X017727Y003628D01*
X017753Y003564D01*
X017854Y003463D01*
X017930Y003279D01*
X017930Y003081D01*
X017854Y002897D01*
X017713Y002756D01*
X017529Y002680D01*
X017331Y002680D01*
X017147Y002756D01*
X017006Y002897D01*
X016930Y003081D01*
X016930Y003279D01*
X016976Y003389D01*
X016680Y003685D01*
X016245Y003250D01*
X016245Y003068D01*
X016159Y002860D01*
X016000Y002701D01*
X015792Y002615D01*
X015568Y002615D01*
X015360Y002701D01*
X015201Y002860D01*
X015148Y002987D01*
X015148Y002986D01*
X015112Y002915D01*
X015065Y002851D01*
X015009Y002795D01*
X014945Y002748D01*
X014874Y002712D01*
X014798Y002687D01*
X014720Y002675D01*
X014680Y002675D01*
X014640Y002675D01*
X014562Y002687D01*
X014486Y002712D01*
X014415Y002748D01*
X014351Y002795D01*
X014295Y002851D01*
X014248Y002915D01*
X014212Y002986D01*
X014187Y003062D01*
X014175Y003140D01*
X014175Y003180D01*
X014175Y003220D01*
X014187Y003298D01*
X014212Y003374D01*
X014248Y003445D01*
X014295Y003509D01*
X014351Y003565D01*
X014415Y003612D01*
X014486Y003648D01*
X014562Y003673D01*
X014640Y003685D01*
X014680Y003685D01*
X014680Y003180D01*
X014680Y003180D01*
X014175Y003180D01*
X014680Y003180D01*
X014680Y003180D01*
X014680Y003685D01*
X014720Y003685D01*
X014798Y003673D01*
X014874Y003648D01*
X014945Y003612D01*
X015009Y003565D01*
X015065Y003509D01*
X015112Y003445D01*
X015148Y003374D01*
X015148Y003373D01*
X015201Y003500D01*
X015360Y003659D01*
X015568Y003745D01*
X015750Y003745D01*
X016330Y004325D01*
X016330Y005580D01*
X015987Y005580D01*
X016104Y005463D01*
X016180Y005279D01*
X016180Y004561D01*
X016104Y004377D01*
X015963Y004236D01*
X015779Y004160D01*
X015581Y004160D01*
X015397Y004236D01*
X015256Y004377D01*
X015180Y004561D01*
X015104Y004377D01*
X014963Y004236D01*
X014779Y004160D01*
X014655Y004160D01*
X013841Y003346D01*
X013860Y003301D01*
X013860Y003059D01*
X013767Y002834D01*
X013596Y002663D01*
X013371Y002570D01*
X013129Y002570D01*
X012904Y002663D01*
X012733Y002834D01*
X012680Y002962D01*
X012627Y002834D01*
X012456Y002663D01*
X012231Y002570D01*
X011989Y002570D01*
X011764Y002663D01*
X011593Y002834D01*
X011500Y003059D01*
X011500Y003301D01*
X011593Y003526D01*
X011764Y003697D01*
X011989Y003790D01*
X012231Y003790D01*
X012276Y003771D01*
X012665Y004160D01*
X012581Y004160D01*
X012397Y004236D01*
X012256Y004377D01*
X012180Y004561D01*
X012180Y005279D01*
X012256Y005463D01*
X012373Y005580D01*
X012360Y005580D01*
X012232Y005633D01*
X010482Y007383D01*
X010383Y007482D01*
X010364Y007529D01*
X010256Y007637D01*
X010180Y007821D01*
X010180Y008539D01*
X010256Y008723D01*
X010397Y008864D01*
X010581Y008940D01*
X010779Y008940D01*
X010963Y008864D01*
X011104Y008723D01*
X011180Y008539D01*
X011180Y007821D01*
X011137Y007718D01*
X012575Y006280D01*
X018535Y006280D01*
X018883Y006628D01*
X018982Y006727D01*
X019925Y007670D01*
X019925Y007779D01*
X020001Y007962D01*
X020141Y008102D01*
X020324Y008177D01*
X020330Y008177D01*
X020330Y009535D01*
X019535Y010330D01*
X016825Y010330D01*
X016030Y009535D01*
X016030Y009057D01*
X016104Y008983D01*
X016180Y008799D01*
X016180Y008081D01*
X016159Y008030D01*
X016535Y008030D01*
X017110Y008605D01*
X016180Y008605D01*
X016180Y008447D02*
X016952Y008447D01*
X017110Y008605D02*
X017110Y008916D01*
X017444Y009250D01*
X017916Y009250D01*
X018250Y008916D01*
X018250Y008444D01*
X017916Y008110D01*
X017605Y008110D01*
X016878Y007383D01*
X016750Y007330D01*
X015360Y007330D01*
X015232Y007383D01*
X015133Y007482D01*
X014889Y007726D01*
X014779Y007680D01*
X014581Y007680D01*
X014397Y007756D01*
X014256Y007897D01*
X014180Y008081D01*
X014104Y007897D01*
X014030Y007823D01*
X014030Y007575D01*
X014325Y007280D01*
X017285Y007280D01*
X018610Y008605D01*
X018250Y008605D01*
X018250Y008447D02*
X018452Y008447D01*
X018610Y008605D02*
X018610Y008916D01*
X018944Y009250D01*
X019416Y009250D01*
X019750Y008916D01*
X019750Y008444D01*
X019416Y008110D01*
X019105Y008110D01*
X017727Y006732D01*
X017628Y006633D01*
X017500Y006580D01*
X012860Y006580D01*
X012732Y006633D01*
X012633Y006732D01*
X011633Y007732D01*
X011580Y007860D01*
X011580Y009035D01*
X011285Y009330D01*
X009825Y009330D01*
X009530Y009035D01*
X009530Y008919D01*
X009581Y008940D01*
X009779Y008940D01*
X009963Y008864D01*
X010104Y008723D01*
X010180Y008539D01*
X010180Y007821D01*
X010104Y007637D01*
X010030Y007563D01*
X010030Y006825D01*
X010977Y005878D01*
X010996Y005831D01*
X011104Y005723D01*
X011180Y005539D01*
X011180Y004821D01*
X011104Y004637D01*
X010996Y004529D01*
X010977Y004482D01*
X010878Y004383D01*
X010477Y003982D01*
X010378Y003883D01*
X010250Y003830D01*
X007110Y003830D01*
X006982Y003883D01*
X006482Y004383D01*
X006482Y004383D01*
X006383Y004482D01*
X006364Y004529D01*
X006256Y004637D01*
X006180Y004821D01*
X006104Y004637D01*
X005963Y004496D01*
X005779Y004420D01*
X005581Y004420D01*
X005397Y004496D01*
X005256Y004637D01*
X005180Y004821D01*
X005180Y005539D01*
X005223Y005642D01*
X005035Y005830D01*
X004884Y005830D01*
X004911Y005816D01*
X004967Y005776D01*
X005016Y005727D01*
X005056Y005671D01*
X005088Y005609D01*
X005109Y005543D01*
X005120Y005475D01*
X005120Y005180D01*
X004680Y005180D01*
X004240Y005180D01*
X004240Y005475D01*
X004251Y005543D01*
X004272Y005609D01*
X004304Y005671D01*
X004344Y005727D01*
X004393Y005776D01*
X004449Y005816D01*
X004476Y005830D01*
X003825Y005830D01*
X003290Y005295D01*
X003290Y004927D01*
X002933Y004570D01*
X002427Y004570D01*
X002180Y004817D01*
X001933Y004570D01*
X001427Y004570D01*
X001070Y004927D01*
X001070Y005433D01*
X001317Y005680D01*
X001070Y005927D01*
X001070Y006433D01*
X001317Y006680D01*
X001070Y006927D01*
X001070Y007433D01*
X001317Y007680D01*
X001070Y007927D01*
X001070Y008433D01*
X001330Y008693D01*
X001330Y008750D01*
X001383Y008878D01*
X001790Y009285D01*
X001597Y009174D01*
X001322Y009100D01*
X001038Y009100D01*
X000790Y009166D01*
X000790Y003694D01*
X001038Y003760D01*
X001322Y003760D01*
X001597Y003686D01*
X001843Y003544D01*
X002044Y003343D01*
X002186Y003097D01*
X002260Y002822D01*
X002260Y002538D01*
X002186Y002263D01*
X002127Y002160D01*
X021483Y002160D01*
X021424Y002263D01*
X021350Y002538D01*
X021350Y002822D01*
X021424Y003097D01*
X021566Y003343D01*
X021767Y003544D01*
X022013Y003686D01*
X022288Y003760D01*
X022572Y003760D01*
X022847Y003686D01*
X022950Y003627D01*
X022950Y009233D01*
X022847Y009174D01*
X022572Y009100D01*
X022288Y009100D01*
X022013Y009174D01*
X021767Y009316D01*
X021566Y009517D01*
X021424Y009763D01*
X021350Y010038D01*
X021350Y010322D01*
X021424Y010597D01*
X021483Y010700D01*
X020156Y010699D01*
X020977Y009878D01*
X021030Y009750D01*
X021030Y008177D01*
X021036Y008177D01*
X021219Y008102D01*
X021359Y007962D01*
X021435Y007779D01*
X021435Y007581D01*
X021359Y007398D01*
X021219Y007258D01*
X021036Y007183D01*
X020427Y007183D01*
X020358Y007113D01*
X020388Y007117D01*
X020680Y007117D01*
X020972Y007117D01*
X021040Y007107D01*
X021105Y007085D01*
X021167Y007054D01*
X021222Y007014D01*
X021271Y006965D01*
X021312Y006909D01*
X021343Y006848D01*
X021364Y006782D01*
X021375Y006714D01*
X021375Y006680D01*
X020680Y006680D01*
X019985Y006680D01*
X019985Y006714D01*
X019990Y006745D01*
X019530Y006285D01*
X019530Y005136D01*
X019750Y004916D01*
X019750Y004444D01*
X019416Y004110D01*
X018944Y004110D01*
X018728Y004326D02*
X018529Y004326D01*
X018610Y004484D02*
X018371Y004484D01*
X018250Y004643D02*
X018610Y004643D01*
X018610Y004801D02*
X018250Y004801D01*
X018207Y004960D02*
X018653Y004960D01*
X018812Y005118D02*
X018048Y005118D01*
X017312Y005118D02*
X017030Y005118D01*
X017030Y004960D02*
X017153Y004960D01*
X017110Y004801D02*
X017030Y004801D01*
X017030Y004643D02*
X017110Y004643D01*
X017110Y004484D02*
X017030Y004484D01*
X017030Y004326D02*
X017228Y004326D01*
X017188Y004167D02*
X017387Y004167D01*
X017346Y004009D02*
X017857Y004009D01*
X018015Y003850D02*
X017505Y003850D01*
X017663Y003692D02*
X018080Y003692D01*
X018076Y003533D02*
X017784Y003533D01*
X017891Y003375D02*
X017969Y003375D01*
X017930Y003216D02*
X017930Y003216D01*
X017940Y003058D02*
X017920Y003058D01*
X017855Y002899D02*
X018005Y002899D01*
X018184Y002741D02*
X017676Y002741D01*
X017184Y002741D02*
X016040Y002741D01*
X016175Y002899D02*
X017005Y002899D01*
X016940Y003058D02*
X016241Y003058D01*
X016245Y003216D02*
X016930Y003216D01*
X016969Y003375D02*
X016369Y003375D01*
X016528Y003533D02*
X016832Y003533D01*
X016172Y004167D02*
X015796Y004167D01*
X015564Y004167D02*
X014796Y004167D01*
X015053Y004326D02*
X015307Y004326D01*
X015212Y004484D02*
X015148Y004484D01*
X015180Y004561D02*
X015180Y005279D01*
X015104Y005463D01*
X014987Y005580D01*
X015373Y005580D01*
X015256Y005463D01*
X015180Y005279D01*
X015180Y004561D01*
X015180Y004643D02*
X015180Y004643D01*
X015180Y004801D02*
X015180Y004801D01*
X015180Y004960D02*
X015180Y004960D01*
X015180Y005118D02*
X015180Y005118D01*
X015180Y005277D02*
X015180Y005277D01*
X015244Y005435D02*
X015116Y005435D01*
X016116Y005435D02*
X016330Y005435D01*
X016330Y005277D02*
X016180Y005277D01*
X016180Y005118D02*
X016330Y005118D01*
X016330Y004960D02*
X016180Y004960D01*
X016180Y004801D02*
X016330Y004801D01*
X016330Y004643D02*
X016180Y004643D01*
X016148Y004484D02*
X016330Y004484D01*
X016330Y004326D02*
X016053Y004326D01*
X016014Y004009D02*
X014503Y004009D01*
X014345Y003850D02*
X015855Y003850D01*
X015438Y003692D02*
X014186Y003692D01*
X014319Y003533D02*
X014028Y003533D01*
X013869Y003375D02*
X014212Y003375D01*
X014175Y003216D02*
X013860Y003216D01*
X013860Y003058D02*
X014189Y003058D01*
X014260Y002899D02*
X013794Y002899D01*
X013673Y002741D02*
X014430Y002741D01*
X014680Y002741D02*
X014680Y002741D01*
X014680Y002675D02*
X014680Y003180D01*
X014680Y003180D01*
X014680Y002675D01*
X014680Y002899D02*
X014680Y002899D01*
X014680Y003058D02*
X014680Y003058D01*
X014680Y003216D02*
X014680Y003216D01*
X014680Y003375D02*
X014680Y003375D01*
X014680Y003533D02*
X014680Y003533D01*
X015041Y003533D02*
X015234Y003533D01*
X015149Y003375D02*
X015148Y003375D01*
X015185Y002899D02*
X015100Y002899D01*
X014930Y002741D02*
X015320Y002741D01*
X013400Y002582D02*
X021350Y002582D01*
X021350Y002741D02*
X021040Y002741D01*
X021175Y002899D02*
X021371Y002899D01*
X021413Y003058D02*
X021241Y003058D01*
X021245Y003216D02*
X021492Y003216D01*
X021597Y003375D02*
X021211Y003375D01*
X021126Y003533D02*
X021756Y003533D01*
X022032Y003692D02*
X021030Y003692D01*
X021030Y003850D02*
X021970Y003850D01*
X021969Y003850D02*
X021892Y003890D01*
X021822Y003940D01*
X021760Y004002D01*
X021710Y004072D01*
X021670Y004149D01*
X021644Y004231D01*
X021630Y004317D01*
X021630Y004340D01*
X022160Y004340D01*
X022160Y003810D01*
X022137Y003810D01*
X022051Y003824D01*
X021969Y003850D01*
X022160Y003850D02*
X022200Y003850D01*
X022200Y004009D02*
X022160Y004009D01*
X022160Y004167D02*
X022200Y004167D01*
X022200Y004326D02*
X022160Y004326D01*
X021756Y004009D02*
X021030Y004009D01*
X021030Y004167D02*
X021664Y004167D01*
X021630Y004326D02*
X021030Y004326D01*
X021030Y004484D02*
X021643Y004484D01*
X021707Y004643D02*
X021030Y004643D01*
X021030Y004801D02*
X021851Y004801D01*
X021891Y004960D02*
X021030Y004960D01*
X021030Y005118D02*
X021699Y005118D01*
X021612Y005277D02*
X021238Y005277D01*
X021252Y006069D02*
X021960Y006069D01*
X022400Y006069D02*
X022950Y006069D01*
X022950Y005911D02*
X022632Y005911D01*
X022736Y005752D02*
X022950Y005752D01*
X022950Y005594D02*
X022790Y005594D01*
X022790Y005435D02*
X022950Y005435D01*
X022950Y005277D02*
X022748Y005277D01*
X022661Y005118D02*
X022950Y005118D01*
X022950Y004960D02*
X022469Y004960D01*
X022509Y004801D02*
X022950Y004801D01*
X022950Y004643D02*
X022653Y004643D01*
X022717Y004484D02*
X022950Y004484D01*
X022950Y004326D02*
X022730Y004326D01*
X022696Y004167D02*
X022950Y004167D01*
X022950Y004009D02*
X022604Y004009D01*
X022390Y003850D02*
X022950Y003850D01*
X022950Y003692D02*
X022828Y003692D01*
X021381Y002424D02*
X010573Y002424D01*
X010572Y002413D02*
X010567Y002391D01*
X010559Y002370D01*
X010550Y002350D01*
X010538Y002331D01*
X010524Y002313D01*
X010508Y002297D01*
X010490Y002283D01*
X010471Y002271D01*
X010451Y002262D01*
X010430Y002254D01*
X010408Y002249D01*
X010386Y002247D01*
X002685Y002247D01*
X002663Y002249D01*
X002641Y002254D01*
X002620Y002262D01*
X002600Y002271D01*
X002581Y002283D01*
X002563Y002297D01*
X002547Y002313D01*
X002533Y002331D01*
X002521Y002350D01*
X002512Y002370D01*
X002504Y002391D01*
X002499Y002413D01*
X002497Y002435D01*
X002497Y003625D01*
X002499Y003647D01*
X002504Y003669D01*
X002512Y003690D01*
X002521Y003710D01*
X002533Y003729D01*
X002547Y003747D01*
X002563Y003763D01*
X002581Y003777D01*
X002600Y003789D01*
X002620Y003798D01*
X002641Y003806D01*
X002663Y003811D01*
X002685Y003813D01*
X010386Y003813D01*
X010408Y003811D01*
X010430Y003806D01*
X010451Y003798D01*
X010471Y003789D01*
X010490Y003777D01*
X010508Y003763D01*
X010524Y003747D01*
X010538Y003729D01*
X010550Y003710D01*
X010559Y003690D01*
X010567Y003669D01*
X010572Y003647D01*
X010574Y003625D01*
X010574Y002435D01*
X010572Y002413D01*
X010574Y002582D02*
X011960Y002582D01*
X012260Y002582D02*
X013100Y002582D01*
X012827Y002741D02*
X012533Y002741D01*
X012654Y002899D02*
X012706Y002899D01*
X012355Y003850D02*
X010298Y003850D01*
X010477Y003982D02*
X010477Y003982D01*
X010503Y004009D02*
X012514Y004009D01*
X012564Y004167D02*
X010662Y004167D01*
X010820Y004326D02*
X012307Y004326D01*
X012212Y004484D02*
X010978Y004484D01*
X011106Y004643D02*
X012180Y004643D01*
X012180Y004801D02*
X011172Y004801D01*
X011180Y004960D02*
X012180Y004960D01*
X012180Y005118D02*
X011180Y005118D01*
X011180Y005277D02*
X012180Y005277D01*
X012244Y005435D02*
X011180Y005435D01*
X011158Y005594D02*
X012328Y005594D01*
X012113Y005752D02*
X011075Y005752D01*
X010944Y005911D02*
X011955Y005911D01*
X011796Y006069D02*
X010786Y006069D01*
X010627Y006228D02*
X011638Y006228D01*
X011479Y006386D02*
X010469Y006386D01*
X010310Y006545D02*
X011321Y006545D01*
X011162Y006703D02*
X010152Y006703D01*
X010030Y006862D02*
X011004Y006862D01*
X010845Y007020D02*
X010030Y007020D01*
X010030Y007179D02*
X010687Y007179D01*
X010528Y007337D02*
X010030Y007337D01*
X010030Y007496D02*
X010378Y007496D01*
X010249Y007654D02*
X010111Y007654D01*
X010177Y007813D02*
X010183Y007813D01*
X010180Y007971D02*
X010180Y007971D01*
X010180Y008130D02*
X010180Y008130D01*
X010180Y008288D02*
X010180Y008288D01*
X010180Y008447D02*
X010180Y008447D01*
X010207Y008605D02*
X010153Y008605D01*
X010064Y008764D02*
X010296Y008764D01*
X010537Y008922D02*
X009823Y008922D01*
X009575Y009081D02*
X011535Y009081D01*
X011580Y008922D02*
X010823Y008922D01*
X011064Y008764D02*
X011580Y008764D01*
X011580Y008605D02*
X011153Y008605D01*
X011180Y008447D02*
X011580Y008447D01*
X011580Y008288D02*
X011180Y008288D01*
X011180Y008130D02*
X011580Y008130D01*
X011580Y007971D02*
X011180Y007971D01*
X011177Y007813D02*
X011600Y007813D01*
X011711Y007654D02*
X011201Y007654D01*
X011359Y007496D02*
X011870Y007496D01*
X012028Y007337D02*
X011518Y007337D01*
X011676Y007179D02*
X012187Y007179D01*
X012345Y007020D02*
X011835Y007020D01*
X011993Y006862D02*
X012504Y006862D01*
X012662Y006703D02*
X012152Y006703D01*
X012310Y006545D02*
X018800Y006545D01*
X018883Y006628D02*
X018883Y006628D01*
X018958Y006703D02*
X017698Y006703D01*
X017856Y006862D02*
X019117Y006862D01*
X018982Y006727D02*
X018982Y006727D01*
X019275Y007020D02*
X018015Y007020D01*
X018173Y007179D02*
X019434Y007179D01*
X019592Y007337D02*
X018332Y007337D01*
X018490Y007496D02*
X019751Y007496D01*
X019909Y007654D02*
X018649Y007654D01*
X018807Y007813D02*
X019939Y007813D01*
X020010Y007971D02*
X018966Y007971D01*
X019436Y008130D02*
X020208Y008130D01*
X020330Y008288D02*
X019594Y008288D01*
X019750Y008447D02*
X020330Y008447D01*
X020330Y008605D02*
X019750Y008605D01*
X019750Y008764D02*
X020330Y008764D01*
X020330Y008922D02*
X019744Y008922D01*
X019586Y009081D02*
X020330Y009081D01*
X020330Y009239D02*
X019427Y009239D01*
X018933Y009239D02*
X017927Y009239D01*
X018086Y009081D02*
X018774Y009081D01*
X018616Y008922D02*
X018244Y008922D01*
X018250Y008764D02*
X018610Y008764D01*
X018293Y008288D02*
X018094Y008288D01*
X018135Y008130D02*
X017936Y008130D01*
X017976Y007971D02*
X017466Y007971D01*
X017307Y007813D02*
X017818Y007813D01*
X017659Y007654D02*
X017149Y007654D01*
X016990Y007496D02*
X017501Y007496D01*
X017342Y007337D02*
X016767Y007337D01*
X016635Y008130D02*
X016180Y008130D01*
X016180Y008288D02*
X016793Y008288D01*
X017110Y008764D02*
X016180Y008764D01*
X016129Y008922D02*
X017116Y008922D01*
X017274Y009081D02*
X016030Y009081D01*
X016030Y009239D02*
X017433Y009239D01*
X016526Y010032D02*
X019834Y010032D01*
X019992Y009873D02*
X016368Y009873D01*
X016209Y009715D02*
X020151Y009715D01*
X020309Y009556D02*
X016051Y009556D01*
X016030Y009398D02*
X020330Y009398D01*
X020979Y009873D02*
X021394Y009873D01*
X021352Y010032D02*
X020823Y010032D01*
X020665Y010190D02*
X021350Y010190D01*
X021357Y010349D02*
X020506Y010349D01*
X020348Y010507D02*
X021400Y010507D01*
X021463Y010666D02*
X020189Y010666D01*
X019675Y010190D02*
X016685Y010190D01*
X014830Y009535D02*
X014830Y009179D01*
X014779Y009200D01*
X014581Y009200D01*
X014397Y009124D01*
X014256Y008983D01*
X014180Y008799D01*
X014180Y008081D01*
X014180Y008799D01*
X014104Y008983D01*
X013963Y009124D01*
X013779Y009200D01*
X013581Y009200D01*
X013397Y009124D01*
X013256Y008983D01*
X013180Y008799D01*
X013180Y008081D01*
X013256Y007897D01*
X013330Y007823D01*
X013330Y007360D01*
X013363Y007280D01*
X013075Y007280D01*
X012609Y007746D01*
X012645Y007740D01*
X012680Y007740D01*
X012680Y008180D01*
X012680Y008180D01*
X012680Y009140D01*
X012645Y009140D01*
X012577Y009129D01*
X012511Y009108D01*
X012449Y009076D01*
X012393Y009036D01*
X012344Y008987D01*
X012304Y008931D01*
X012280Y008884D01*
X012280Y009250D01*
X012227Y009378D01*
X012128Y009477D01*
X011775Y009830D01*
X014535Y009830D01*
X014830Y009535D01*
X014809Y009556D02*
X012049Y009556D01*
X012207Y009398D02*
X014830Y009398D01*
X014830Y009239D02*
X012280Y009239D01*
X012280Y009081D02*
X012458Y009081D01*
X012680Y009081D02*
X012680Y009081D01*
X012680Y009140D02*
X012715Y009140D01*
X012783Y009129D01*
X012849Y009108D01*
X012911Y009076D01*
X012967Y009036D01*
X013016Y008987D01*
X013056Y008931D01*
X013088Y008869D01*
X013109Y008803D01*
X013120Y008735D01*
X013120Y008180D01*
X012680Y008180D01*
X012680Y008180D01*
X012680Y008180D01*
X012680Y009140D01*
X012680Y008922D02*
X012680Y008922D01*
X012680Y008764D02*
X012680Y008764D01*
X012680Y008605D02*
X012680Y008605D01*
X012680Y008447D02*
X012680Y008447D01*
X012680Y008288D02*
X012680Y008288D01*
X012680Y008180D02*
X013120Y008180D01*
X013120Y008145D01*
X013109Y008077D01*
X013088Y008011D01*
X013056Y007949D01*
X013016Y007893D01*
X012967Y007844D01*
X012911Y007804D01*
X012849Y007772D01*
X012783Y007751D01*
X012715Y007740D01*
X012680Y007740D01*
X012680Y008180D01*
X012680Y008130D02*
X012680Y008130D01*
X012680Y007971D02*
X012680Y007971D01*
X012680Y007813D02*
X012680Y007813D01*
X012701Y007654D02*
X013330Y007654D01*
X013330Y007496D02*
X012859Y007496D01*
X013018Y007337D02*
X013340Y007337D01*
X013330Y007813D02*
X012923Y007813D01*
X013067Y007971D02*
X013225Y007971D01*
X013180Y008130D02*
X013117Y008130D01*
X013120Y008288D02*
X013180Y008288D01*
X013180Y008447D02*
X013120Y008447D01*
X013120Y008605D02*
X013180Y008605D01*
X013180Y008764D02*
X013115Y008764D01*
X013061Y008922D02*
X013231Y008922D01*
X013353Y009081D02*
X012902Y009081D01*
X012299Y008922D02*
X012280Y008922D01*
X011890Y009715D02*
X014651Y009715D01*
X014353Y009081D02*
X014007Y009081D01*
X014129Y008922D02*
X014231Y008922D01*
X014180Y008764D02*
X014180Y008764D01*
X014180Y008605D02*
X014180Y008605D01*
X014180Y008447D02*
X014180Y008447D01*
X014180Y008288D02*
X014180Y008288D01*
X014180Y008130D02*
X014180Y008130D01*
X014225Y007971D02*
X014135Y007971D01*
X014030Y007813D02*
X014340Y007813D01*
X014030Y007654D02*
X014961Y007654D01*
X015120Y007496D02*
X014109Y007496D01*
X014268Y007337D02*
X015343Y007337D01*
X017030Y005435D02*
X018830Y005435D01*
X018830Y005277D02*
X017030Y005277D01*
X018782Y005594D02*
X018830Y005594D01*
X019530Y005594D02*
X019925Y005594D01*
X019925Y005752D02*
X019530Y005752D01*
X019530Y005911D02*
X019980Y005911D01*
X020108Y006069D02*
X019530Y006069D01*
X019530Y006228D02*
X022950Y006228D01*
X022950Y006386D02*
X021262Y006386D01*
X021271Y006395D02*
X021222Y006346D01*
X021167Y006306D01*
X021105Y006275D01*
X021040Y006253D01*
X020972Y006243D01*
X020680Y006243D01*
X020388Y006243D01*
X020320Y006253D01*
X020255Y006275D01*
X020193Y006306D01*
X020138Y006346D01*
X020089Y006395D01*
X020048Y006451D01*
X020017Y006512D01*
X019996Y006578D01*
X019985Y006646D01*
X019985Y006680D01*
X020680Y006680D01*
X020680Y006680D01*
X020680Y006680D01*
X020680Y007117D01*
X020680Y006680D01*
X020680Y006243D01*
X020680Y006680D01*
X020680Y006680D01*
X020680Y006680D01*
X021375Y006680D01*
X021375Y006646D01*
X021364Y006578D01*
X021343Y006512D01*
X021312Y006451D01*
X021271Y006395D01*
X021353Y006545D02*
X022950Y006545D01*
X022950Y006703D02*
X021375Y006703D01*
X021336Y006862D02*
X022950Y006862D01*
X022950Y007020D02*
X021214Y007020D01*
X021298Y007337D02*
X022950Y007337D01*
X022950Y007179D02*
X020423Y007179D01*
X020680Y007020D02*
X020680Y007020D01*
X020680Y006862D02*
X020680Y006862D01*
X020680Y006703D02*
X020680Y006703D01*
X020680Y006545D02*
X020680Y006545D01*
X020680Y006386D02*
X020680Y006386D01*
X020098Y006386D02*
X019631Y006386D01*
X019789Y006545D02*
X020007Y006545D01*
X019985Y006703D02*
X019948Y006703D01*
X019986Y005435D02*
X019530Y005435D01*
X019530Y005277D02*
X020122Y005277D01*
X020330Y005118D02*
X019548Y005118D01*
X019707Y004960D02*
X020330Y004960D01*
X020330Y004801D02*
X019750Y004801D01*
X019750Y004643D02*
X020330Y004643D01*
X020330Y004484D02*
X019750Y004484D01*
X019632Y004326D02*
X020330Y004326D01*
X020330Y004167D02*
X019473Y004167D01*
X020100Y002899D02*
X020185Y002899D01*
X020320Y002741D02*
X019930Y002741D01*
X021423Y002265D02*
X010458Y002265D01*
X010574Y002741D02*
X011687Y002741D01*
X011566Y002899D02*
X010574Y002899D01*
X010574Y003058D02*
X011500Y003058D01*
X011500Y003216D02*
X010574Y003216D01*
X010574Y003375D02*
X011530Y003375D01*
X011600Y003533D02*
X010574Y003533D01*
X010559Y003692D02*
X011759Y003692D01*
X012469Y006386D02*
X018641Y006386D01*
X021030Y008288D02*
X022950Y008288D01*
X022950Y008130D02*
X021152Y008130D01*
X021350Y007971D02*
X022950Y007971D01*
X022950Y007813D02*
X021421Y007813D01*
X021435Y007654D02*
X022950Y007654D01*
X022950Y007496D02*
X021400Y007496D01*
X021030Y008447D02*
X022950Y008447D01*
X022950Y008605D02*
X021030Y008605D01*
X021030Y008764D02*
X022950Y008764D01*
X022950Y008922D02*
X021030Y008922D01*
X021030Y009081D02*
X022950Y009081D01*
X021900Y009239D02*
X021030Y009239D01*
X021030Y009398D02*
X021685Y009398D01*
X021543Y009556D02*
X021030Y009556D01*
X021030Y009715D02*
X021452Y009715D01*
X011376Y009239D02*
X009734Y009239D01*
X009537Y008922D02*
X009530Y008922D01*
X006675Y005940D02*
X006285Y006330D01*
X005525Y006330D01*
X005977Y005878D01*
X005996Y005831D01*
X006104Y005723D01*
X006180Y005539D01*
X006180Y004821D01*
X006180Y005539D01*
X006256Y005723D01*
X006397Y005864D01*
X006581Y005940D01*
X006675Y005940D01*
X006509Y005911D02*
X005944Y005911D01*
X006075Y005752D02*
X006285Y005752D01*
X006202Y005594D02*
X006158Y005594D01*
X006180Y005435D02*
X006180Y005435D01*
X006180Y005277D02*
X006180Y005277D01*
X006180Y005118D02*
X006180Y005118D01*
X006180Y004960D02*
X006180Y004960D01*
X006188Y004801D02*
X006172Y004801D01*
X006106Y004643D02*
X006254Y004643D01*
X006382Y004484D02*
X005934Y004484D01*
X005426Y004484D02*
X004740Y004484D01*
X004715Y004480D02*
X004680Y004480D01*
X004645Y004480D01*
X004577Y004491D01*
X004511Y004512D01*
X004449Y004544D01*
X004393Y004584D01*
X004344Y004633D01*
X004304Y004689D01*
X004272Y004751D01*
X004251Y004817D01*
X004240Y004885D01*
X004240Y005180D01*
X004680Y005180D01*
X004680Y005180D01*
X004680Y004480D01*
X004680Y005180D01*
X004680Y005180D01*
X004680Y005180D01*
X005120Y005180D01*
X005120Y004885D01*
X005109Y004817D01*
X005088Y004751D01*
X005056Y004689D01*
X005016Y004633D01*
X004967Y004584D01*
X004911Y004544D01*
X004849Y004512D01*
X004783Y004491D01*
X004715Y004480D01*
X004680Y004484D02*
X004680Y004484D01*
X004620Y004484D02*
X000790Y004484D01*
X000790Y004326D02*
X006540Y004326D01*
X006698Y004167D02*
X000790Y004167D01*
X000790Y004009D02*
X006857Y004009D01*
X007062Y003850D02*
X000790Y003850D01*
X001578Y003692D02*
X002512Y003692D01*
X002497Y003533D02*
X001854Y003533D01*
X002013Y003375D02*
X002497Y003375D01*
X002497Y003216D02*
X002118Y003216D01*
X002197Y003058D02*
X002497Y003058D01*
X002497Y002899D02*
X002239Y002899D01*
X002260Y002741D02*
X002497Y002741D01*
X002497Y002582D02*
X002260Y002582D01*
X002229Y002424D02*
X002498Y002424D01*
X002613Y002265D02*
X002187Y002265D01*
X002355Y004643D02*
X002005Y004643D01*
X002164Y004801D02*
X002196Y004801D01*
X003005Y004643D02*
X004338Y004643D01*
X004256Y004801D02*
X003164Y004801D01*
X003290Y004960D02*
X004240Y004960D01*
X004240Y005118D02*
X003290Y005118D01*
X003290Y005277D02*
X004240Y005277D01*
X004240Y005435D02*
X003430Y005435D01*
X003588Y005594D02*
X004267Y005594D01*
X004370Y005752D02*
X003747Y005752D01*
X004680Y005118D02*
X004680Y005118D01*
X004680Y004960D02*
X004680Y004960D01*
X004680Y004801D02*
X004680Y004801D01*
X004680Y004643D02*
X004680Y004643D01*
X005022Y004643D02*
X005254Y004643D01*
X005188Y004801D02*
X005104Y004801D01*
X005120Y004960D02*
X005180Y004960D01*
X005180Y005118D02*
X005120Y005118D01*
X005120Y005277D02*
X005180Y005277D01*
X005180Y005435D02*
X005120Y005435D01*
X005093Y005594D02*
X005202Y005594D01*
X005113Y005752D02*
X004990Y005752D01*
X005627Y006228D02*
X006388Y006228D01*
X006546Y006069D02*
X005786Y006069D01*
X001744Y009239D02*
X001710Y009239D01*
X001586Y009081D02*
X000790Y009081D01*
X000790Y008922D02*
X001427Y008922D01*
X001336Y008764D02*
X000790Y008764D01*
X000790Y008605D02*
X001242Y008605D01*
X001084Y008447D02*
X000790Y008447D01*
X000790Y008288D02*
X001070Y008288D01*
X001070Y008130D02*
X000790Y008130D01*
X000790Y007971D02*
X001070Y007971D01*
X001185Y007813D02*
X000790Y007813D01*
X000790Y007654D02*
X001291Y007654D01*
X001133Y007496D02*
X000790Y007496D01*
X000790Y007337D02*
X001070Y007337D01*
X001070Y007179D02*
X000790Y007179D01*
X000790Y007020D02*
X001070Y007020D01*
X001136Y006862D02*
X000790Y006862D01*
X000790Y006703D02*
X001294Y006703D01*
X001182Y006545D02*
X000790Y006545D01*
X000790Y006386D02*
X001070Y006386D01*
X001070Y006228D02*
X000790Y006228D01*
X000790Y006069D02*
X001070Y006069D01*
X001087Y005911D02*
X000790Y005911D01*
X000790Y005752D02*
X001245Y005752D01*
X001231Y005594D02*
X000790Y005594D01*
X000790Y005435D02*
X001072Y005435D01*
X001070Y005277D02*
X000790Y005277D01*
X000790Y005118D02*
X001070Y005118D01*
X001070Y004960D02*
X000790Y004960D01*
X000790Y004801D02*
X001196Y004801D01*
X001355Y004643D02*
X000790Y004643D01*
D20*
X001680Y005180D02*
X001680Y006180D01*
X001680Y007180D01*
X001680Y008180D01*
X001680Y008680D01*
X003680Y010680D01*
X016680Y010680D01*
X015680Y009680D01*
X015680Y008180D01*
X015430Y007680D02*
X016680Y007680D01*
X017680Y008680D01*
X019180Y008680D02*
X017430Y006930D01*
X014180Y006930D01*
X012930Y006930D01*
X011930Y007930D01*
X011930Y009180D01*
X011430Y009680D01*
X009680Y009680D01*
X009180Y009180D01*
X009180Y007430D01*
X008930Y007180D01*
X008430Y007180D01*
X007680Y007930D01*
X007680Y008180D01*
X007180Y007680D02*
X008680Y006180D01*
X008930Y006180D01*
X009430Y005680D01*
X009680Y005430D02*
X009680Y005180D01*
X008680Y005180D02*
X008680Y004180D01*
X007180Y004180D01*
X006680Y004680D01*
X006680Y005180D01*
X005680Y005180D02*
X005680Y005680D01*
X005180Y006180D01*
X003680Y006180D01*
X002680Y005180D01*
X002680Y006180D02*
X003180Y006680D01*
X006430Y006680D01*
X007680Y005430D01*
X007680Y005180D01*
X008680Y005180D02*
X008680Y005430D01*
X006930Y007180D01*
X006680Y007430D01*
X006680Y008180D01*
X007180Y007680D02*
X007180Y008930D01*
X006680Y009430D01*
X003930Y009430D01*
X002680Y008180D01*
X002680Y007180D02*
X003180Y007180D01*
X004180Y008180D01*
X004680Y008180D01*
X005680Y008180D02*
X005680Y007680D01*
X006180Y007180D01*
X006930Y007180D01*
X008680Y008180D02*
X008680Y009680D01*
X009180Y010180D01*
X014680Y010180D01*
X015180Y009680D01*
X015180Y007930D01*
X015430Y007680D01*
X014180Y006930D02*
X013680Y007430D01*
X013680Y008180D01*
X012430Y005930D02*
X010680Y007680D01*
X010680Y008180D01*
X009680Y008180D02*
X009680Y006680D01*
X010680Y005680D01*
X010680Y005180D01*
X010680Y004680D01*
X010180Y004180D01*
X008680Y004180D01*
X012110Y003180D02*
X012180Y003180D01*
X013680Y004680D01*
X013680Y005180D01*
X014680Y005180D02*
X014680Y004680D01*
X013180Y003180D01*
X013250Y003180D01*
X015680Y003180D02*
X016680Y004180D01*
X017430Y003430D01*
X017430Y003180D01*
X018430Y003180D02*
X018430Y003930D01*
X017680Y004680D01*
X016680Y004180D02*
X016680Y005930D01*
X012430Y005930D01*
X016680Y005930D02*
X018680Y005930D01*
X019180Y006430D01*
X019180Y004680D01*
X020680Y005680D02*
X020680Y003180D01*
X022180Y005500D02*
X022000Y005680D01*
X020680Y005680D01*
X019180Y006430D02*
X020430Y007680D01*
X020680Y007680D01*
X020680Y009680D01*
X019680Y010680D01*
X016680Y010680D01*
D21*
X010680Y005180D02*
X010680Y004930D01*
M02*
