%
M48
M72
T01C0.0276
T02C0.0315
T03C0.0320
T04C0.0400
T05C0.1200
%
T01
X14680Y3180
X15680Y3180
X19680Y3180
X20680Y3180
T02
X20680Y5680
X20680Y6680
X20680Y7680
T03
X19180Y8680
X17680Y8680
X15680Y8180
X14680Y8180
X13680Y8180
X12680Y8180
X10680Y8180
X9680Y8180
X8680Y8180
X7680Y8180
X6680Y8180
X5680Y8180
X4680Y8180
X4680Y5180
X5680Y5180
X6680Y5180
X7680Y5180
X8680Y5180
X9680Y5180
X10680Y5180
X12680Y5180
X13680Y5180
X14680Y5180
X15680Y5180
X17430Y3180
X18430Y3180
X19180Y4680
X17680Y4680
T04
X22180Y4360
X22180Y5500
X13250Y3180
X12110Y3180
X2680Y5180
X2680Y6180
X2680Y7180
X2680Y8180
X1680Y8180
X1680Y7180
X1680Y6180
X1680Y5180
T05
X1180Y2680
X1180Y10180
X22430Y10180
X22430Y2680
M30
