G75*
%MOMM*%
%OFA0.0B0.0*%
%FSLAX24Y24*%
%IPPOS*%
%LPD*%
%AMOC8*5,1,8,0,0,2.034,22.5*%
%ADD10C,0*%
%ADD11C,0.1524*%
%ADD12C,1.651*%
%ADD13C,1.321*%
%ADD14C,1.88*%
%ADD15OC8,1.676*%
%ADD16C,1.308*%
%ADD17OC8,1.88*%
%ADD18C,1.321*%
%ADD19C,0.4064*%
%ADD20C,0.762*%
%ADD21C,0.3048*%
D10*
X7874Y42672D02*
X7874Y283870D01*
X595122Y283972D01*
X595122Y42672D01*
X7874Y42672D01*
X14732Y68072D02*
X14783Y69317D01*
X14935Y70536D01*
X15189Y71755D01*
X15545Y72949D01*
X15977Y74117D01*
X16510Y75235D01*
X17145Y76302D01*
X17856Y77318D01*
X18669Y78283D01*
X19533Y79172D01*
X20472Y79985D01*
X21463Y80721D01*
X22530Y81382D01*
X23647Y81940D01*
X24790Y82398D01*
X25984Y82779D01*
X27178Y83058D01*
X28423Y83236D01*
X29667Y83312D01*
X30912Y83287D01*
X32131Y83160D01*
X33376Y82931D01*
X34569Y82601D01*
X35738Y82169D01*
X36855Y81661D01*
X37948Y81051D01*
X38989Y80366D01*
X39954Y79578D01*
X40869Y78740D01*
X41681Y77826D01*
X42443Y76835D01*
X43129Y75794D01*
X43713Y74676D01*
X44196Y73533D01*
X44602Y72365D01*
X44907Y71171D01*
X45110Y69926D01*
X45212Y68682D01*
X45212Y67462D01*
X45110Y66218D01*
X44907Y64973D01*
X44602Y63779D01*
X44196Y62611D01*
X43713Y61468D01*
X43129Y60350D01*
X42443Y59309D01*
X41681Y58318D01*
X40869Y57404D01*
X39954Y56566D01*
X38989Y55778D01*
X37948Y55093D01*
X36855Y54483D01*
X35738Y53975D01*
X34569Y53543D01*
X33376Y53213D01*
X32131Y52984D01*
X30912Y52857D01*
X29667Y52832D01*
X28423Y52908D01*
X27178Y53086D01*
X25984Y53365D01*
X24790Y53746D01*
X23647Y54204D01*
X22530Y54762D01*
X21463Y55423D01*
X20472Y56159D01*
X19533Y56972D01*
X18669Y57861D01*
X17856Y58826D01*
X17145Y59842D01*
X16510Y60909D01*
X15977Y62027D01*
X15545Y63195D01*
X15189Y64389D01*
X14935Y65608D01*
X14783Y66827D01*
X14732Y68072D01*
X14732Y258572D02*
X14783Y259817D01*
X14935Y261036D01*
X15189Y262255D01*
X15545Y263449D01*
X15977Y264617D01*
X16510Y265735D01*
X17145Y266802D01*
X17856Y267818D01*
X18669Y268783D01*
X19533Y269672D01*
X20472Y270485D01*
X21463Y271221D01*
X22530Y271882D01*
X23647Y272440D01*
X24790Y272898D01*
X25984Y273279D01*
X27178Y273558D01*
X28423Y273736D01*
X29667Y273812D01*
X30912Y273787D01*
X32131Y273660D01*
X33376Y273431D01*
X34569Y273101D01*
X35738Y272669D01*
X36855Y272161D01*
X37948Y271551D01*
X38989Y270866D01*
X39954Y270078D01*
X40869Y269240D01*
X41681Y268326D01*
X42443Y267335D01*
X43129Y266294D01*
X43713Y265176D01*
X44196Y264033D01*
X44602Y262865D01*
X44907Y261671D01*
X45110Y260426D01*
X45212Y259182D01*
X45212Y257962D01*
X45110Y256718D01*
X44907Y255473D01*
X44602Y254279D01*
X44196Y253111D01*
X43713Y251968D01*
X43129Y250850D01*
X42443Y249809D01*
X41681Y248818D01*
X40869Y247904D01*
X39954Y247066D01*
X38989Y246278D01*
X37948Y245593D01*
X36855Y244983D01*
X35738Y244475D01*
X34569Y244043D01*
X33376Y243713D01*
X32131Y243484D01*
X30912Y243357D01*
X29667Y243332D01*
X28423Y243408D01*
X27178Y243586D01*
X25984Y243865D01*
X24790Y244246D01*
X23647Y244704D01*
X22530Y245262D01*
X21463Y245923D01*
X20472Y246659D01*
X19533Y247472D01*
X18669Y248361D01*
X17856Y249326D01*
X17145Y250342D01*
X16510Y251409D01*
X15977Y252527D01*
X15545Y253695D01*
X15189Y254889D01*
X14935Y256108D01*
X14783Y257327D01*
X14732Y258572D01*
X554482Y258572D02*
X554533Y259817D01*
X554685Y261036D01*
X554939Y262255D01*
X555295Y263449D01*
X555727Y264617D01*
X556260Y265735D01*
X556895Y266802D01*
X557606Y267818D01*
X558419Y268783D01*
X559283Y269672D01*
X560222Y270485D01*
X561213Y271221D01*
X562280Y271882D01*
X563397Y272440D01*
X564540Y272898D01*
X565734Y273279D01*
X566928Y273558D01*
X568173Y273736D01*
X569417Y273812D01*
X570662Y273787D01*
X571881Y273660D01*
X573126Y273431D01*
X574319Y273101D01*
X575488Y272669D01*
X576605Y272161D01*
X577698Y271551D01*
X578739Y270866D01*
X579704Y270078D01*
X580619Y269240D01*
X581431Y268326D01*
X582193Y267335D01*
X582879Y266294D01*
X583463Y265176D01*
X583946Y264033D01*
X584352Y262865D01*
X584657Y261671D01*
X584860Y260426D01*
X584962Y259182D01*
X584962Y257962D01*
X584860Y256718D01*
X584657Y255473D01*
X584352Y254279D01*
X583946Y253111D01*
X583463Y251968D01*
X582879Y250850D01*
X582193Y249809D01*
X581431Y248818D01*
X580619Y247904D01*
X579704Y247066D01*
X578739Y246278D01*
X577698Y245593D01*
X576605Y244983D01*
X575488Y244475D01*
X574319Y244043D01*
X573126Y243713D01*
X571881Y243484D01*
X570662Y243357D01*
X569417Y243332D01*
X568173Y243408D01*
X566928Y243586D01*
X565734Y243865D01*
X564540Y244246D01*
X563397Y244704D01*
X562280Y245262D01*
X561213Y245923D01*
X560222Y246659D01*
X559283Y247472D01*
X558419Y248361D01*
X557606Y249326D01*
X556895Y250342D01*
X556260Y251409D01*
X555727Y252527D01*
X555295Y253695D01*
X554939Y254889D01*
X554685Y256108D01*
X554533Y257327D01*
X554482Y258572D01*
X554482Y68072D02*
X554533Y69317D01*
X554685Y70536D01*
X554939Y71755D01*
X555295Y72949D01*
X555727Y74117D01*
X556260Y75235D01*
X556895Y76302D01*
X557606Y77318D01*
X558419Y78283D01*
X559283Y79172D01*
X560222Y79985D01*
X561213Y80721D01*
X562280Y81382D01*
X563397Y81940D01*
X564540Y82398D01*
X565734Y82779D01*
X566928Y83058D01*
X568173Y83236D01*
X569417Y83312D01*
X570662Y83287D01*
X571881Y83160D01*
X573126Y82931D01*
X574319Y82601D01*
X575488Y82169D01*
X576605Y81661D01*
X577698Y81051D01*
X578739Y80366D01*
X579704Y79578D01*
X580619Y78740D01*
X581431Y77826D01*
X582193Y76835D01*
X582879Y75794D01*
X583463Y74676D01*
X583946Y73533D01*
X584352Y72365D01*
X584657Y71171D01*
X584860Y69926D01*
X584962Y68682D01*
X584962Y67462D01*
X584860Y66218D01*
X584657Y64973D01*
X584352Y63779D01*
X583946Y62611D01*
X583463Y61468D01*
X582879Y60350D01*
X582193Y59309D01*
X581431Y58318D01*
X580619Y57404D01*
X579704Y56566D01*
X578739Y55778D01*
X577698Y55093D01*
X576605Y54483D01*
X575488Y53975D01*
X574319Y53543D01*
X573126Y53213D01*
X571881Y52984D01*
X570662Y52857D01*
X569417Y52832D01*
X568173Y52908D01*
X566928Y53086D01*
X565734Y53365D01*
X564540Y53746D01*
X563397Y54204D01*
X562280Y54762D01*
X561213Y55423D01*
X560222Y56159D01*
X559283Y56972D01*
X558419Y57861D01*
X557606Y58826D01*
X556895Y59842D01*
X556260Y60909D01*
X555727Y62027D01*
X555295Y63195D01*
X554939Y64389D01*
X554685Y65608D01*
X554533Y66827D01*
X554482Y68072D01*
D11*
X238836Y68834D02*
X227990Y68834D01*
X238836Y79680D01*
X238836Y82398D01*
X236118Y85115D01*
X230708Y85115D01*
X227990Y82398D01*
X222504Y71552D02*
X222504Y68834D01*
X219812Y68834D01*
X219812Y71552D01*
X222504Y71552D01*
X214274Y71552D02*
X211557Y68834D01*
X206146Y68834D01*
X203429Y71552D01*
X214274Y82398D01*
X214274Y71552D01*
X214274Y82398D02*
X211557Y85115D01*
X206146Y85115D01*
X203429Y82398D01*
X203429Y71552D01*
X181559Y79680D02*
X178841Y79680D01*
X173406Y74270D01*
X173406Y79680D02*
X173406Y68834D01*
X167894Y68834D02*
X157048Y79680D01*
X148844Y85115D02*
X148844Y68834D01*
X146126Y68834D02*
X151562Y68834D01*
X157048Y68834D02*
X167894Y79680D01*
X148844Y85115D02*
X146126Y85115D01*
X140614Y76962D02*
X140614Y71552D01*
X137897Y68834D01*
X129743Y68834D01*
X129743Y63398D02*
X129743Y79680D01*
X137897Y79680D01*
X140614Y76962D01*
X124257Y68834D02*
X118847Y68834D01*
X121564Y68834D02*
X121564Y85115D01*
X124257Y85115D02*
X118847Y85115D01*
X113309Y82398D02*
X110617Y85115D01*
X102464Y85115D01*
X102464Y68834D01*
X110617Y68834D01*
X113309Y71552D01*
X113309Y82398D01*
X96977Y85115D02*
X91567Y85115D01*
X94259Y85115D02*
X94259Y68834D01*
X91567Y68834D02*
X96977Y68834D01*
X86030Y68834D02*
X86030Y85115D01*
X80620Y79680D01*
X75184Y85115D01*
X75184Y68834D01*
D12*
X372872Y80772D03*
X398272Y80772D03*
X499872Y80772D03*
X525272Y80772D03*
D13*
X398272Y118364D02*
X398272Y131572D01*
X372872Y131572D02*
X372872Y118364D01*
X347472Y118364D02*
X347472Y131572D01*
X322072Y131572D02*
X322072Y118364D01*
X271272Y124968D02*
X271272Y138176D01*
X245872Y138176D02*
X245872Y124968D01*
X220472Y124968D02*
X220472Y138176D01*
X195072Y138176D02*
X195072Y124968D01*
X169672Y124968D02*
X169672Y138176D01*
X144272Y138176D02*
X144272Y124968D01*
X118872Y124968D02*
X118872Y138176D01*
X118872Y201168D02*
X118872Y214376D01*
X144272Y214376D02*
X144272Y201168D01*
X169672Y201168D02*
X169672Y214376D01*
X195072Y214376D02*
X195072Y201168D01*
X220472Y201168D02*
X220472Y214376D01*
X245872Y214376D02*
X245872Y201168D01*
X271272Y201168D02*
X271272Y214376D01*
X322072Y207772D02*
X322072Y220980D01*
X347472Y220980D02*
X347472Y207772D01*
X372872Y207772D02*
X372872Y220980D01*
X398272Y220980D02*
X398272Y207772D01*
D14*
X336550Y80772D03*
X307594Y80772D03*
X563372Y110744D03*
X563372Y139700D03*
D15*
X487172Y118872D03*
X449072Y118872D03*
X449072Y220472D03*
X487172Y220472D03*
D16*
X518744Y195072D02*
X531800Y195072D01*
X531800Y169672D02*
X518744Y169672D01*
X518744Y144272D02*
X531800Y144272D01*
D17*
X68072Y131572D03*
X68072Y156972D03*
X68072Y182372D03*
X68072Y207772D03*
X42672Y207772D03*
X42672Y182372D03*
X42672Y156972D03*
X42672Y131572D03*
D18*
X442722Y80772D03*
X468122Y80772D03*
D19*
X477114Y89738D02*
X490703Y89738D01*
X490093Y89129D02*
X491515Y90551D01*
X493141Y91745D01*
X494944Y92659D01*
X496875Y93294D01*
X498856Y93599D01*
X499872Y93599D01*
X499872Y80772D01*
X499872Y80772D01*
X487045Y80772D01*
X487045Y81788D01*
X487350Y83769D01*
X487985Y85700D01*
X488899Y87503D01*
X490093Y89129D01*
X487985Y85725D02*
X479831Y85725D01*
X478892Y87960D02*
X480822Y83287D01*
X480822Y78257D01*
X478892Y73584D01*
X475310Y70002D01*
X470637Y68072D01*
X465607Y68072D01*
X460934Y70002D01*
X457352Y73584D01*
X455422Y78257D01*
X455422Y83287D01*
X457352Y87960D01*
X459232Y89840D01*
X459232Y96139D01*
X450977Y104394D01*
X443078Y104394D01*
X434594Y112878D01*
X434594Y124866D01*
X443078Y133350D01*
X455066Y133350D01*
X463550Y124866D01*
X463550Y116967D01*
X475666Y104851D01*
X477012Y101600D01*
X477012Y89840D01*
X478892Y87960D01*
X477012Y93777D02*
X516382Y93777D01*
X516382Y92177D02*
X516382Y131648D01*
X516230Y131648D01*
X511581Y133553D01*
X508025Y137109D01*
X506095Y141757D01*
X506095Y146787D01*
X508025Y151435D01*
X511581Y154991D01*
X516230Y156896D01*
X534314Y156896D01*
X538963Y154991D01*
X540791Y153162D01*
X555396Y153162D01*
X560299Y155194D01*
X566445Y155194D01*
X572160Y152832D01*
X576504Y148488D01*
X578866Y142773D01*
X578866Y136627D01*
X576504Y130912D01*
X572160Y126568D01*
X566750Y124333D01*
X568731Y123698D01*
X570687Y122682D01*
X572465Y121412D01*
X574040Y119837D01*
X575310Y118059D01*
X576326Y116103D01*
X576986Y114021D01*
X577342Y111836D01*
X577342Y111252D01*
X563880Y111252D01*
X563880Y110236D01*
X577342Y110236D01*
X577342Y109652D01*
X576986Y107467D01*
X576326Y105385D01*
X575310Y103429D01*
X574040Y101651D01*
X572465Y100076D01*
X570687Y98806D01*
X568731Y97790D01*
X566649Y97130D01*
X564464Y96774D01*
X563880Y96774D01*
X563880Y110236D01*
X562864Y110236D01*
X562864Y111252D01*
X549402Y111252D01*
X549402Y111836D01*
X549758Y114021D01*
X550418Y116103D01*
X551434Y118059D01*
X552704Y119837D01*
X554279Y121412D01*
X556057Y122682D01*
X558013Y123698D01*
X559994Y124333D01*
X554584Y126568D01*
X550240Y130912D01*
X548386Y135382D01*
X540791Y135382D01*
X538963Y133553D01*
X534314Y131648D01*
X534162Y131648D01*
X534162Y92177D01*
X537439Y88900D01*
X539623Y83617D01*
X539623Y77927D01*
X537439Y72644D01*
X533400Y68605D01*
X528117Y66421D01*
X522427Y66421D01*
X517144Y68605D01*
X513105Y72644D01*
X511759Y75870D01*
X511759Y75844D01*
X510845Y74041D01*
X509651Y72415D01*
X508229Y70993D01*
X506603Y69799D01*
X504800Y68885D01*
X502869Y68250D01*
X500888Y67945D01*
X499872Y67945D01*
X498856Y67945D01*
X496875Y68250D01*
X494944Y68885D01*
X493141Y69799D01*
X491515Y70993D01*
X490093Y72415D01*
X488899Y74041D01*
X487985Y75844D01*
X487350Y77775D01*
X487045Y79756D01*
X487045Y80772D01*
X499872Y80772D01*
X499872Y80772D01*
X499872Y93599D01*
X500888Y93599D01*
X502869Y93294D01*
X504800Y92659D01*
X506603Y91745D01*
X508229Y90551D01*
X509651Y89129D01*
X510845Y87503D01*
X511759Y85700D01*
X511759Y85674D01*
X513105Y88900D01*
X516382Y92177D01*
X513944Y89738D02*
X509041Y89738D01*
X511759Y85725D02*
X511785Y85725D01*
X499872Y85725D02*
X499872Y85725D01*
X499872Y89738D02*
X499872Y89738D01*
X499872Y81686D02*
X499872Y81686D01*
X499872Y80772D02*
X499872Y67945D01*
X499872Y80772D01*
X499872Y80772D01*
X499872Y77673D02*
X499872Y77673D01*
X499872Y73635D02*
X499872Y73635D01*
X499872Y69621D02*
X499872Y69621D01*
X493522Y69621D02*
X474370Y69621D01*
X478917Y73635D02*
X489204Y73635D01*
X487401Y77673D02*
X480568Y77673D01*
X480822Y81686D02*
X487045Y81686D01*
X477012Y97790D02*
X516382Y97790D01*
X516382Y101829D02*
X476910Y101829D01*
X474675Y105842D02*
X479730Y105842D01*
X481178Y104394D02*
X472694Y112878D01*
X472694Y124866D01*
X478282Y130454D01*
X478282Y142570D01*
X476250Y141732D01*
X432562Y141732D01*
X432562Y109855D01*
X450266Y92151D01*
X450926Y90526D01*
X453492Y87960D01*
X455422Y83287D01*
X455422Y78257D01*
X453492Y73584D01*
X449910Y70002D01*
X445237Y68072D01*
X440207Y68072D01*
X435534Y70002D01*
X431952Y73584D01*
X430022Y78257D01*
X430022Y83287D01*
X431190Y86081D01*
X423672Y93599D01*
X412623Y82550D01*
X412623Y77927D01*
X410439Y72644D01*
X406400Y68605D01*
X401117Y66421D01*
X395427Y66421D01*
X390144Y68605D01*
X386105Y72644D01*
X384759Y75870D01*
X384759Y75844D01*
X383845Y74041D01*
X382651Y72415D01*
X381229Y70993D01*
X379603Y69799D01*
X377800Y68885D01*
X375869Y68250D01*
X373888Y67945D01*
X372872Y67945D01*
X371856Y67945D01*
X369875Y68250D01*
X367944Y68885D01*
X366141Y69799D01*
X364515Y70993D01*
X363093Y72415D01*
X361899Y74041D01*
X360985Y75844D01*
X360350Y77775D01*
X360045Y79756D01*
X360045Y80772D01*
X360045Y81788D01*
X360350Y83769D01*
X360985Y85700D01*
X361899Y87503D01*
X363093Y89129D01*
X364515Y90551D01*
X366141Y91745D01*
X367944Y92659D01*
X369875Y93294D01*
X371856Y93599D01*
X372872Y93599D01*
X372872Y80772D01*
X372872Y80772D01*
X360045Y80772D01*
X372872Y80772D01*
X372872Y80772D01*
X372872Y93599D01*
X373888Y93599D01*
X375869Y93294D01*
X377800Y92659D01*
X379603Y91745D01*
X381229Y90551D01*
X382651Y89129D01*
X383845Y87503D01*
X384759Y85700D01*
X384759Y85674D01*
X386105Y88900D01*
X390144Y92939D01*
X395427Y95123D01*
X400050Y95123D01*
X414782Y109855D01*
X414782Y141732D01*
X406070Y141732D01*
X409042Y138760D01*
X410972Y134087D01*
X410972Y115849D01*
X409042Y111176D01*
X405460Y107594D01*
X400787Y105664D01*
X395757Y105664D01*
X391084Y107594D01*
X387502Y111176D01*
X385572Y115849D01*
X383642Y111176D01*
X380060Y107594D01*
X375387Y105664D01*
X372237Y105664D01*
X351561Y84988D01*
X352044Y83845D01*
X352044Y77699D01*
X349682Y71984D01*
X345338Y67640D01*
X339623Y65278D01*
X333477Y65278D01*
X327762Y67640D01*
X323418Y71984D01*
X322072Y75235D01*
X320726Y71984D01*
X316382Y67640D01*
X310667Y65278D01*
X304521Y65278D01*
X298806Y67640D01*
X294462Y71984D01*
X292100Y77699D01*
X292100Y83845D01*
X294462Y89560D01*
X298806Y93904D01*
X304521Y96266D01*
X310667Y96266D01*
X311810Y95783D01*
X321691Y105664D01*
X319557Y105664D01*
X314884Y107594D01*
X311302Y111176D01*
X309372Y115849D01*
X309372Y134087D01*
X311302Y138760D01*
X314274Y141732D01*
X313944Y141732D01*
X310693Y143078D01*
X266243Y187528D01*
X263728Y190043D01*
X263246Y191237D01*
X260502Y193980D01*
X258572Y198653D01*
X258572Y216891D01*
X260502Y221564D01*
X264084Y225146D01*
X268757Y227076D01*
X273787Y227076D01*
X278460Y225146D01*
X282042Y221564D01*
X283972Y216891D01*
X283972Y198653D01*
X282880Y196037D01*
X319405Y159512D01*
X470789Y159512D01*
X479628Y168351D01*
X482143Y170866D01*
X506095Y194818D01*
X506095Y197587D01*
X508025Y202235D01*
X511581Y205791D01*
X516230Y207696D01*
X516382Y207696D01*
X516382Y242189D01*
X496189Y262382D01*
X427355Y262382D01*
X407162Y242189D01*
X407162Y230048D01*
X409042Y228168D01*
X410972Y223495D01*
X410972Y205257D01*
X410439Y203962D01*
X419989Y203962D01*
X434594Y218567D01*
X410972Y218567D01*
X410972Y214554D02*
X430581Y214554D01*
X434594Y218567D02*
X434594Y226466D01*
X443078Y234950D01*
X455066Y234950D01*
X463550Y226466D01*
X463550Y214478D01*
X455066Y205994D01*
X447167Y205994D01*
X428701Y187528D01*
X425450Y186182D01*
X390144Y186182D01*
X386893Y187528D01*
X384378Y190043D01*
X378181Y196240D01*
X375387Y195072D01*
X370357Y195072D01*
X365684Y197002D01*
X362102Y200584D01*
X360172Y205257D01*
X358242Y200584D01*
X356362Y198704D01*
X356362Y192405D01*
X363855Y184912D01*
X439039Y184912D01*
X472694Y218567D01*
X463550Y218567D01*
X463550Y214554D02*
X468681Y214554D01*
X472694Y218567D02*
X472694Y226466D01*
X481178Y234950D01*
X493166Y234950D01*
X501650Y226466D01*
X501650Y214478D01*
X493166Y205994D01*
X485267Y205994D01*
X450266Y170993D01*
X447751Y168478D01*
X444500Y167132D01*
X326644Y167132D01*
X323393Y168478D01*
X320878Y170993D01*
X295478Y196393D01*
X294132Y199644D01*
X294132Y229489D01*
X286639Y236982D01*
X249555Y236982D01*
X242062Y229489D01*
X242062Y226543D01*
X243357Y227076D01*
X248387Y227076D01*
X253060Y225146D01*
X256642Y221564D01*
X258572Y216891D01*
X258572Y198653D01*
X256642Y193980D01*
X254762Y192100D01*
X254762Y173355D01*
X278816Y149301D01*
X279298Y148107D01*
X282042Y145364D01*
X283972Y140691D01*
X283972Y122453D01*
X282042Y117780D01*
X279298Y115037D01*
X278816Y113843D01*
X276301Y111328D01*
X266116Y101143D01*
X263601Y98628D01*
X260350Y97282D01*
X180594Y97282D01*
X177343Y98628D01*
X164643Y111328D01*
X164643Y111328D01*
X162128Y113843D01*
X161646Y115037D01*
X158902Y117780D01*
X156972Y122453D01*
X155042Y117780D01*
X151460Y114198D01*
X146787Y112268D01*
X141757Y112268D01*
X137084Y114198D01*
X133502Y117780D01*
X131572Y122453D01*
X131572Y140691D01*
X132664Y143307D01*
X127889Y148082D01*
X124054Y148082D01*
X124739Y147726D01*
X126162Y146710D01*
X127406Y145466D01*
X128422Y144043D01*
X129235Y142469D01*
X129769Y140792D01*
X130048Y139065D01*
X130048Y131572D01*
X118872Y131572D01*
X107696Y131572D01*
X107696Y139065D01*
X107975Y140792D01*
X108509Y142469D01*
X109322Y144043D01*
X110338Y145466D01*
X111582Y146710D01*
X113005Y147726D01*
X113690Y148082D01*
X97155Y148082D01*
X83566Y134493D01*
X83566Y125146D01*
X74498Y116078D01*
X61646Y116078D01*
X55372Y122352D01*
X49098Y116078D01*
X36246Y116078D01*
X27178Y125146D01*
X27178Y137998D01*
X33452Y144272D01*
X27178Y150546D01*
X27178Y163398D01*
X33452Y169672D01*
X27178Y175946D01*
X27178Y188798D01*
X33452Y195072D01*
X27178Y201346D01*
X27178Y214198D01*
X33782Y220802D01*
X33782Y222250D01*
X35128Y225501D01*
X45466Y235839D01*
X40564Y233020D01*
X33579Y231140D01*
X26365Y231140D01*
X20066Y232816D01*
X20066Y93828D01*
X26365Y95504D01*
X33579Y95504D01*
X40564Y93624D01*
X46812Y90018D01*
X51918Y84912D01*
X55524Y78664D01*
X57404Y71679D01*
X57404Y64465D01*
X55524Y57480D01*
X54026Y54864D01*
X545668Y54864D01*
X544170Y57480D01*
X542290Y64465D01*
X542290Y71679D01*
X544170Y78664D01*
X547776Y84912D01*
X552882Y90018D01*
X559130Y93624D01*
X566115Y95504D01*
X573329Y95504D01*
X580314Y93624D01*
X582930Y92126D01*
X582930Y234518D01*
X580314Y233020D01*
X573329Y231140D01*
X566115Y231140D01*
X559130Y233020D01*
X552882Y236626D01*
X547776Y241732D01*
X544170Y247980D01*
X542290Y254965D01*
X542290Y262179D01*
X544170Y269164D01*
X545668Y271780D01*
X511962Y271755D01*
X532816Y250901D01*
X534162Y247650D01*
X534162Y207696D01*
X534314Y207696D01*
X538963Y205791D01*
X542519Y202235D01*
X544449Y197587D01*
X544449Y192557D01*
X542519Y187909D01*
X538963Y184353D01*
X534314Y182448D01*
X518846Y182448D01*
X517093Y180670D01*
X517855Y180772D01*
X525272Y180772D01*
X532689Y180772D01*
X534416Y180518D01*
X536067Y179959D01*
X537642Y179172D01*
X539039Y178156D01*
X540283Y176911D01*
X541325Y175489D01*
X542112Y173939D01*
X542646Y172263D01*
X542925Y170536D01*
X542925Y169672D01*
X525272Y169672D01*
X507619Y169672D01*
X507619Y170536D01*
X507746Y171323D01*
X496062Y159639D01*
X496062Y130454D01*
X501650Y124866D01*
X501650Y112878D01*
X493166Y104394D01*
X481178Y104394D01*
X475691Y109880D02*
X470637Y109880D01*
X472694Y113894D02*
X466623Y113894D01*
X463550Y117932D02*
X472694Y117932D01*
X472694Y121945D02*
X463550Y121945D01*
X462458Y125984D02*
X473786Y125984D01*
X477825Y129997D02*
X458419Y129997D01*
X439725Y129997D02*
X432562Y129997D01*
X432562Y125984D02*
X435686Y125984D01*
X434594Y121945D02*
X432562Y121945D01*
X432562Y117932D02*
X434594Y117932D01*
X434594Y113894D02*
X432562Y113894D01*
X432562Y109880D02*
X437591Y109880D01*
X436575Y105842D02*
X441630Y105842D01*
X440588Y101829D02*
X453568Y101829D01*
X457581Y97790D02*
X444627Y97790D01*
X448640Y93777D02*
X459232Y93777D01*
X459130Y89738D02*
X451714Y89738D01*
X454431Y85725D02*
X456413Y85725D01*
X455422Y81686D02*
X455422Y81686D01*
X455676Y77673D02*
X455168Y77673D01*
X453517Y73635D02*
X457327Y73635D01*
X461874Y69621D02*
X448970Y69621D01*
X436474Y69621D02*
X407416Y69621D01*
X410845Y73635D02*
X431927Y73635D01*
X430276Y77673D02*
X412521Y77673D01*
X412623Y81686D02*
X430022Y81686D01*
X431013Y85725D02*
X415773Y85725D01*
X419811Y89738D02*
X427533Y89738D01*
X410769Y105842D02*
X401218Y105842D01*
X395326Y105842D02*
X375818Y105842D01*
X382346Y109880D02*
X388798Y109880D01*
X386385Y113894D02*
X384759Y113894D01*
X385572Y115849D02*
X385572Y134087D01*
X383642Y138760D01*
X380670Y141732D01*
X390474Y141732D01*
X387502Y138760D01*
X385572Y134087D01*
X385572Y115849D01*
X385572Y117932D02*
X385572Y117932D01*
X385572Y121945D02*
X385572Y121945D01*
X385572Y125984D02*
X385572Y125984D01*
X385572Y129997D02*
X385572Y129997D01*
X385572Y134036D02*
X385572Y134036D01*
X387198Y138049D02*
X383946Y138049D01*
X409346Y138049D02*
X414782Y138049D01*
X414782Y134036D02*
X410972Y134036D01*
X410972Y129997D02*
X414782Y129997D01*
X414782Y125984D02*
X410972Y125984D01*
X410972Y121945D02*
X414782Y121945D01*
X414782Y117932D02*
X410972Y117932D01*
X410159Y113894D02*
X414782Y113894D01*
X414782Y109880D02*
X407746Y109880D01*
X406756Y101829D02*
X368376Y101829D01*
X364363Y97790D02*
X402717Y97790D01*
X392125Y93777D02*
X360324Y93777D01*
X363703Y89738D02*
X356311Y89738D01*
X352273Y85725D02*
X360985Y85725D01*
X360045Y81686D02*
X352044Y81686D01*
X352044Y77673D02*
X360401Y77673D01*
X362204Y73635D02*
X350368Y73635D01*
X347294Y69621D02*
X366522Y69621D01*
X372872Y69621D02*
X372872Y69621D01*
X372872Y67945D02*
X372872Y80772D01*
X372872Y80772D01*
X372872Y67945D01*
X372872Y73635D02*
X372872Y73635D01*
X372872Y77673D02*
X372872Y77673D01*
X372872Y81686D02*
X372872Y81686D01*
X372872Y85725D02*
X372872Y85725D01*
X372872Y89738D02*
X372872Y89738D01*
X382041Y89738D02*
X386944Y89738D01*
X384785Y85725D02*
X384759Y85725D01*
X385699Y73635D02*
X383540Y73635D01*
X379222Y69621D02*
X389128Y69621D01*
X340360Y65583D02*
X542290Y65583D01*
X542290Y69621D02*
X534416Y69621D01*
X537845Y73635D02*
X542823Y73635D01*
X543890Y77673D02*
X539521Y77673D01*
X539623Y81686D02*
X545897Y81686D01*
X548564Y85725D02*
X538759Y85725D01*
X536600Y89738D02*
X552602Y89738D01*
X559613Y93777D02*
X534162Y93777D01*
X534162Y97790D02*
X558038Y97790D01*
X558013Y97790D02*
X556057Y98806D01*
X554279Y100076D01*
X552704Y101651D01*
X551434Y103429D01*
X550418Y105385D01*
X549758Y107467D01*
X549402Y109652D01*
X549402Y110236D01*
X562864Y110236D01*
X562864Y96774D01*
X562280Y96774D01*
X560095Y97130D01*
X558013Y97790D01*
X562864Y97790D02*
X563880Y97790D01*
X563880Y101829D02*
X562864Y101829D01*
X562864Y105842D02*
X563880Y105842D01*
X563880Y109880D02*
X562864Y109880D01*
X552602Y101829D02*
X534162Y101829D01*
X534162Y105842D02*
X550266Y105842D01*
X549402Y109880D02*
X534162Y109880D01*
X534162Y113894D02*
X549732Y113894D01*
X551358Y117932D02*
X534162Y117932D01*
X534162Y121945D02*
X555015Y121945D01*
X556031Y125984D02*
X534162Y125984D01*
X534162Y129997D02*
X551155Y129997D01*
X548945Y134036D02*
X539445Y134036D01*
X539801Y154153D02*
X557784Y154153D01*
X568960Y154153D02*
X582930Y154153D01*
X582930Y150139D02*
X574853Y150139D01*
X577494Y146101D02*
X582930Y146101D01*
X582930Y142088D02*
X578866Y142088D01*
X578866Y138049D02*
X582930Y138049D01*
X582930Y134036D02*
X577799Y134036D01*
X575589Y129997D02*
X582930Y129997D01*
X582930Y125984D02*
X570713Y125984D01*
X571729Y121945D02*
X582930Y121945D01*
X582930Y117932D02*
X575386Y117932D01*
X577012Y113894D02*
X582930Y113894D01*
X582930Y109880D02*
X577342Y109880D01*
X576478Y105842D02*
X582930Y105842D01*
X582930Y101829D02*
X574142Y101829D01*
X568706Y97790D02*
X582930Y97790D01*
X582930Y93777D02*
X579831Y93777D01*
X543077Y61570D02*
X268554Y61570D01*
X268529Y61290D02*
X268402Y60731D01*
X268199Y60198D01*
X267970Y59690D01*
X267665Y59207D01*
X267310Y58750D01*
X266903Y58344D01*
X266446Y57988D01*
X265963Y57683D01*
X265455Y57455D01*
X264922Y57252D01*
X264363Y57125D01*
X263804Y57074D01*
X68199Y57074D01*
X67640Y57125D01*
X67081Y57252D01*
X66548Y57455D01*
X66040Y57683D01*
X65557Y57988D01*
X65100Y58344D01*
X64694Y58750D01*
X64338Y59207D01*
X64033Y59690D01*
X63805Y60198D01*
X63602Y60731D01*
X63475Y61290D01*
X63424Y61849D01*
X63424Y92075D01*
X63475Y92634D01*
X63602Y93193D01*
X63805Y93726D01*
X64033Y94234D01*
X64338Y94717D01*
X64694Y95174D01*
X65100Y95580D01*
X65557Y95936D01*
X66040Y96241D01*
X66548Y96469D01*
X67081Y96672D01*
X67640Y96799D01*
X68199Y96850D01*
X263804Y96850D01*
X264363Y96799D01*
X264922Y96672D01*
X265455Y96469D01*
X265963Y96241D01*
X266446Y95936D01*
X266903Y95580D01*
X267310Y95174D01*
X267665Y94717D01*
X267970Y94234D01*
X268199Y93726D01*
X268402Y93193D01*
X268529Y92634D01*
X268580Y92075D01*
X268580Y61849D01*
X268529Y61290D01*
X268580Y65583D02*
X303784Y65583D01*
X311404Y65583D02*
X332740Y65583D01*
X325806Y69621D02*
X318338Y69621D01*
X321412Y73635D02*
X322732Y73635D01*
X313817Y97790D02*
X261569Y97790D01*
X266116Y101143D02*
X266116Y101143D01*
X266776Y101829D02*
X317856Y101829D01*
X319126Y105842D02*
X270815Y105842D01*
X274828Y109880D02*
X312598Y109880D01*
X310185Y113894D02*
X278841Y113894D01*
X282092Y117932D02*
X309372Y117932D01*
X309372Y121945D02*
X283769Y121945D01*
X283972Y125984D02*
X309372Y125984D01*
X309372Y129997D02*
X283972Y129997D01*
X283972Y134036D02*
X309372Y134036D01*
X310998Y138049D02*
X283972Y138049D01*
X283413Y142088D02*
X313131Y142088D01*
X307670Y146101D02*
X281305Y146101D01*
X277978Y150139D02*
X303657Y150139D01*
X299618Y154153D02*
X273964Y154153D01*
X269926Y158191D02*
X295605Y158191D01*
X291567Y162204D02*
X265913Y162204D01*
X261874Y166243D02*
X287553Y166243D01*
X283515Y170256D02*
X257861Y170256D01*
X254762Y174295D02*
X279502Y174295D01*
X275463Y178308D02*
X254762Y178308D01*
X254762Y182347D02*
X271450Y182347D01*
X267411Y186360D02*
X254762Y186360D01*
X254762Y190398D02*
X263601Y190398D01*
X260325Y194412D02*
X256819Y194412D01*
X258496Y198450D02*
X258648Y198450D01*
X258572Y202463D02*
X258572Y202463D01*
X258572Y206502D02*
X258572Y206502D01*
X258572Y210515D02*
X258572Y210515D01*
X258572Y214554D02*
X258572Y214554D01*
X259258Y218567D02*
X257886Y218567D01*
X255626Y222606D02*
X261518Y222606D01*
X267640Y226619D02*
X249504Y226619D01*
X243205Y230657D02*
X292989Y230657D01*
X294132Y226619D02*
X274904Y226619D01*
X281026Y222606D02*
X294132Y222606D01*
X294132Y218567D02*
X283286Y218567D01*
X283972Y214554D02*
X294132Y214554D01*
X294132Y210515D02*
X283972Y210515D01*
X283972Y206502D02*
X294132Y206502D01*
X294132Y202463D02*
X283972Y202463D01*
X283896Y198450D02*
X294640Y198450D01*
X297459Y194412D02*
X284505Y194412D01*
X288519Y190398D02*
X301498Y190398D01*
X305511Y186360D02*
X292557Y186360D01*
X296570Y182347D02*
X309550Y182347D01*
X313563Y178308D02*
X300609Y178308D01*
X304622Y174295D02*
X317602Y174295D01*
X321615Y170256D02*
X308661Y170256D01*
X312674Y166243D02*
X477520Y166243D01*
X479628Y168351D02*
X479628Y168351D01*
X481533Y170256D02*
X449529Y170256D01*
X453542Y174295D02*
X485572Y174295D01*
X482143Y170866D02*
X482143Y170866D01*
X489585Y178308D02*
X457581Y178308D01*
X461594Y182347D02*
X493624Y182347D01*
X497637Y186360D02*
X465633Y186360D01*
X469646Y190398D02*
X501675Y190398D01*
X505689Y194412D02*
X473685Y194412D01*
X477698Y198450D02*
X506451Y198450D01*
X508254Y202463D02*
X481736Y202463D01*
X493674Y206502D02*
X513283Y206502D01*
X516382Y210515D02*
X497688Y210515D01*
X501650Y214554D02*
X516382Y214554D01*
X516382Y218567D02*
X501650Y218567D01*
X501650Y222606D02*
X516382Y222606D01*
X516382Y226619D02*
X501498Y226619D01*
X497484Y230657D02*
X516382Y230657D01*
X516382Y234671D02*
X493446Y234671D01*
X480898Y234671D02*
X455346Y234671D01*
X459384Y230657D02*
X476860Y230657D01*
X472846Y226619D02*
X463398Y226619D01*
X463550Y222606D02*
X472694Y222606D01*
X464642Y210515D02*
X459588Y210515D01*
X460629Y206502D02*
X455574Y206502D01*
X456590Y202463D02*
X443636Y202463D01*
X439598Y198450D02*
X452577Y198450D01*
X448539Y194412D02*
X435585Y194412D01*
X431546Y190398D02*
X444525Y190398D01*
X440487Y186360D02*
X425882Y186360D01*
X422529Y206502D02*
X410972Y206502D01*
X410972Y210515D02*
X426542Y210515D01*
X434594Y222606D02*
X410972Y222606D01*
X409677Y226619D02*
X434746Y226619D01*
X438760Y230657D02*
X407162Y230657D01*
X407162Y234671D02*
X442798Y234671D01*
X419760Y254813D02*
X503784Y254813D01*
X507797Y250774D02*
X415747Y250774D01*
X411709Y246761D02*
X511835Y246761D01*
X515849Y242722D02*
X407695Y242722D01*
X407162Y238709D02*
X516382Y238709D01*
X532867Y250774D02*
X543408Y250774D01*
X542341Y254813D02*
X528904Y254813D01*
X524891Y258826D02*
X542290Y258826D01*
X542468Y262865D02*
X520852Y262865D01*
X516839Y266878D02*
X543560Y266878D01*
X545160Y270916D02*
X512801Y270916D01*
X499745Y258826D02*
X423799Y258826D01*
X376682Y242189D02*
X376682Y233147D01*
X375387Y233680D01*
X370357Y233680D01*
X365684Y231750D01*
X362102Y228168D01*
X360172Y223495D01*
X360172Y205257D01*
X360172Y223495D01*
X358242Y228168D01*
X354660Y231750D01*
X349987Y233680D01*
X344957Y233680D01*
X340284Y231750D01*
X336702Y228168D01*
X334772Y223495D01*
X334772Y205257D01*
X336702Y200584D01*
X338582Y198704D01*
X338582Y186944D01*
X339420Y184912D01*
X332105Y184912D01*
X320269Y196748D01*
X321183Y196596D01*
X322072Y196596D01*
X322072Y207772D01*
X322072Y207772D01*
X322072Y232156D01*
X321183Y232156D01*
X319456Y231877D01*
X317779Y231343D01*
X316205Y230530D01*
X314782Y229514D01*
X313538Y228270D01*
X312522Y226847D01*
X311912Y225654D01*
X311912Y234950D01*
X310566Y238201D01*
X308051Y240716D01*
X299085Y249682D01*
X369189Y249682D01*
X376682Y242189D01*
X376149Y242722D02*
X306045Y242722D01*
X310058Y238709D02*
X376682Y238709D01*
X376682Y234671D02*
X311912Y234671D01*
X311912Y230657D02*
X316433Y230657D01*
X322072Y230657D02*
X322072Y230657D01*
X322072Y232156D02*
X322961Y232156D01*
X324688Y231877D01*
X326365Y231343D01*
X327939Y230530D01*
X329362Y229514D01*
X330606Y228270D01*
X331622Y226847D01*
X332435Y225273D01*
X332969Y223596D01*
X333248Y221869D01*
X333248Y207772D01*
X322072Y207772D01*
X322072Y207772D01*
X322072Y207772D01*
X322072Y232156D01*
X322072Y226619D02*
X322072Y226619D01*
X322072Y222606D02*
X322072Y222606D01*
X322072Y218567D02*
X322072Y218567D01*
X322072Y214554D02*
X322072Y214554D01*
X322072Y210515D02*
X322072Y210515D01*
X322072Y207772D02*
X333248Y207772D01*
X333248Y206883D01*
X332969Y205156D01*
X332435Y203479D01*
X331622Y201905D01*
X330606Y200482D01*
X329362Y199238D01*
X327939Y198222D01*
X326365Y197409D01*
X324688Y196875D01*
X322961Y196596D01*
X322072Y196596D01*
X322072Y207772D01*
X322072Y206502D02*
X322072Y206502D01*
X322072Y202463D02*
X322072Y202463D01*
X322072Y198450D02*
X322072Y198450D01*
X322605Y194412D02*
X338582Y194412D01*
X338582Y190398D02*
X326619Y190398D01*
X330657Y186360D02*
X338836Y186360D01*
X338582Y198450D02*
X328244Y198450D01*
X331902Y202463D02*
X335915Y202463D01*
X334772Y206502D02*
X333172Y206502D01*
X333248Y210515D02*
X334772Y210515D01*
X334772Y214554D02*
X333248Y214554D01*
X333248Y218567D02*
X334772Y218567D01*
X334772Y222606D02*
X333121Y222606D01*
X331749Y226619D02*
X336067Y226619D01*
X339166Y230657D02*
X327711Y230657D01*
X312395Y226619D02*
X311912Y226619D01*
X302006Y246761D02*
X372135Y246761D01*
X364566Y230657D02*
X355778Y230657D01*
X358877Y226619D02*
X361467Y226619D01*
X360172Y222606D02*
X360172Y222606D01*
X360172Y218567D02*
X360172Y218567D01*
X360172Y214554D02*
X360172Y214554D01*
X360172Y210515D02*
X360172Y210515D01*
X360172Y206502D02*
X360172Y206502D01*
X361315Y202463D02*
X359029Y202463D01*
X356362Y198450D02*
X364236Y198450D01*
X356362Y194412D02*
X380009Y194412D01*
X384048Y190398D02*
X358369Y190398D01*
X362407Y186360D02*
X389712Y186360D01*
X432562Y138049D02*
X478282Y138049D01*
X478282Y134036D02*
X432562Y134036D01*
X477063Y142088D02*
X478282Y142088D01*
X496062Y142088D02*
X506095Y142088D01*
X506095Y146101D02*
X496062Y146101D01*
X496062Y150139D02*
X507492Y150139D01*
X510743Y154153D02*
X496062Y154153D01*
X496062Y158191D02*
X582930Y158191D01*
X582930Y162204D02*
X540055Y162204D01*
X540283Y162433D02*
X539039Y161188D01*
X537642Y160172D01*
X536067Y159385D01*
X534416Y158826D01*
X532689Y158572D01*
X525272Y158572D01*
X517855Y158572D01*
X516128Y158826D01*
X514477Y159385D01*
X512902Y160172D01*
X511505Y161188D01*
X510261Y162433D01*
X509219Y163855D01*
X508432Y165405D01*
X507898Y167081D01*
X507619Y168808D01*
X507619Y169672D01*
X525272Y169672D01*
X525272Y169672D01*
X525272Y169672D01*
X525272Y180772D01*
X525272Y169672D01*
X525272Y158572D01*
X525272Y169672D01*
X525272Y169672D01*
X525272Y169672D01*
X542925Y169672D01*
X542925Y168808D01*
X542646Y167081D01*
X542112Y165405D01*
X541325Y163855D01*
X540283Y162433D01*
X542366Y166243D02*
X582930Y166243D01*
X582930Y170256D02*
X542925Y170256D01*
X541934Y174295D02*
X582930Y174295D01*
X582930Y178308D02*
X538836Y178308D01*
X540969Y186360D02*
X582930Y186360D01*
X582930Y182347D02*
X518744Y182347D01*
X525272Y178308D02*
X525272Y178308D01*
X525272Y174295D02*
X525272Y174295D01*
X525272Y170256D02*
X525272Y170256D01*
X525272Y166243D02*
X525272Y166243D01*
X525272Y162204D02*
X525272Y162204D01*
X510489Y162204D02*
X498627Y162204D01*
X502641Y166243D02*
X508178Y166243D01*
X507619Y170256D02*
X506679Y170256D01*
X507644Y138049D02*
X496062Y138049D01*
X496062Y134036D02*
X511099Y134036D01*
X516382Y129997D02*
X496519Y129997D01*
X500558Y125984D02*
X516382Y125984D01*
X516382Y121945D02*
X501650Y121945D01*
X501650Y117932D02*
X516382Y117932D01*
X516382Y113894D02*
X501650Y113894D01*
X498653Y109880D02*
X516382Y109880D01*
X516382Y105842D02*
X494614Y105842D01*
X510540Y73635D02*
X512699Y73635D01*
X516128Y69621D02*
X506222Y69621D01*
X544144Y57531D02*
X265633Y57531D01*
X268580Y69621D02*
X296850Y69621D01*
X293776Y73635D02*
X268580Y73635D01*
X268580Y77673D02*
X292100Y77673D01*
X292100Y81686D02*
X268580Y81686D01*
X268580Y85725D02*
X292862Y85725D01*
X294640Y89738D02*
X268580Y89738D01*
X268199Y93777D02*
X298679Y93777D01*
X316713Y162204D02*
X473481Y162204D01*
X534162Y210515D02*
X582930Y210515D01*
X582930Y206502D02*
X537261Y206502D01*
X542290Y202463D02*
X582930Y202463D01*
X582930Y198450D02*
X544093Y198450D01*
X544449Y194412D02*
X582930Y194412D01*
X582930Y190398D02*
X543560Y190398D01*
X534162Y214554D02*
X582930Y214554D01*
X582930Y218567D02*
X534162Y218567D01*
X534162Y222606D02*
X582930Y222606D01*
X582930Y226619D02*
X534162Y226619D01*
X534162Y230657D02*
X582930Y230657D01*
X556260Y234671D02*
X534162Y234671D01*
X534162Y238709D02*
X550799Y238709D01*
X547192Y242722D02*
X534162Y242722D01*
X534162Y246761D02*
X544881Y246761D01*
X288950Y234671D02*
X247244Y234671D01*
X242240Y226619D02*
X242062Y226619D01*
X169545Y150876D02*
X159639Y160782D01*
X140335Y160782D01*
X151816Y149301D01*
X152298Y148107D01*
X155042Y145364D01*
X156972Y140691D01*
X156972Y122453D01*
X156972Y140691D01*
X158902Y145364D01*
X162484Y148946D01*
X167157Y150876D01*
X169545Y150876D01*
X165329Y150139D02*
X150978Y150139D01*
X154305Y146101D02*
X159639Y146101D01*
X157531Y142088D02*
X156413Y142088D01*
X156972Y138049D02*
X156972Y138049D01*
X156972Y134036D02*
X156972Y134036D01*
X156972Y129997D02*
X156972Y129997D01*
X156972Y125984D02*
X156972Y125984D01*
X157175Y121945D02*
X156769Y121945D01*
X155092Y117932D02*
X158852Y117932D01*
X162103Y113894D02*
X150724Y113894D01*
X137820Y113894D02*
X120396Y113894D01*
X119761Y113792D02*
X118872Y113792D01*
X117983Y113792D01*
X116256Y114071D01*
X114579Y114605D01*
X113005Y115418D01*
X111582Y116434D01*
X110338Y117678D01*
X109322Y119101D01*
X108509Y120675D01*
X107975Y122352D01*
X107696Y124079D01*
X107696Y131572D01*
X118872Y131572D01*
X118872Y131572D01*
X118872Y113792D01*
X118872Y131572D01*
X118872Y131572D01*
X118872Y131572D01*
X130048Y131572D01*
X130048Y124079D01*
X129769Y122352D01*
X129235Y120675D01*
X128422Y119101D01*
X127406Y117678D01*
X126162Y116434D01*
X124739Y115418D01*
X123165Y114605D01*
X121488Y114071D01*
X119761Y113792D01*
X118872Y113894D02*
X118872Y113894D01*
X117348Y113894D02*
X20066Y113894D01*
X20066Y109880D02*
X166116Y109880D01*
X170129Y105842D02*
X20066Y105842D01*
X20066Y101829D02*
X174168Y101829D01*
X179375Y97790D02*
X20066Y97790D01*
X40081Y93777D02*
X63805Y93777D01*
X63424Y89738D02*
X47092Y89738D01*
X51130Y85725D02*
X63424Y85725D01*
X63424Y81686D02*
X53797Y81686D01*
X55804Y77673D02*
X63424Y77673D01*
X63424Y73635D02*
X56871Y73635D01*
X57404Y69621D02*
X63424Y69621D01*
X63424Y65583D02*
X57404Y65583D01*
X56617Y61570D02*
X63449Y61570D01*
X66370Y57531D02*
X55550Y57531D01*
X59817Y117932D02*
X50927Y117932D01*
X54966Y121945D02*
X55778Y121945D01*
X76327Y117932D02*
X110185Y117932D01*
X108102Y121945D02*
X80366Y121945D01*
X83566Y125984D02*
X107696Y125984D01*
X107696Y129997D02*
X83566Y129997D01*
X83566Y134036D02*
X107696Y134036D01*
X107696Y138049D02*
X87122Y138049D01*
X91135Y142088D02*
X108382Y142088D01*
X110998Y146101D02*
X95174Y146101D01*
X118872Y129997D02*
X118872Y129997D01*
X118872Y125984D02*
X118872Y125984D01*
X118872Y121945D02*
X118872Y121945D01*
X118872Y117932D02*
X118872Y117932D01*
X127559Y117932D02*
X133452Y117932D01*
X131775Y121945D02*
X129642Y121945D01*
X130048Y125984D02*
X131572Y125984D01*
X131572Y129997D02*
X130048Y129997D01*
X130048Y134036D02*
X131572Y134036D01*
X131572Y138049D02*
X130048Y138049D01*
X129362Y142088D02*
X132131Y142088D01*
X129870Y146101D02*
X126746Y146101D01*
X142926Y158191D02*
X162255Y158191D01*
X166268Y154153D02*
X146964Y154153D01*
X44298Y234671D02*
X43434Y234671D01*
X40284Y230657D02*
X20066Y230657D01*
X20066Y226619D02*
X36246Y226619D01*
X33934Y222606D02*
X20066Y222606D01*
X20066Y218567D02*
X31547Y218567D01*
X27534Y214554D02*
X20066Y214554D01*
X20066Y210515D02*
X27178Y210515D01*
X27178Y206502D02*
X20066Y206502D01*
X20066Y202463D02*
X27178Y202463D01*
X30099Y198450D02*
X20066Y198450D01*
X20066Y194412D02*
X32791Y194412D01*
X28778Y190398D02*
X20066Y190398D01*
X20066Y186360D02*
X27178Y186360D01*
X27178Y182347D02*
X20066Y182347D01*
X20066Y178308D02*
X27178Y178308D01*
X28854Y174295D02*
X20066Y174295D01*
X20066Y170256D02*
X32868Y170256D01*
X30023Y166243D02*
X20066Y166243D01*
X20066Y162204D02*
X27178Y162204D01*
X27178Y158191D02*
X20066Y158191D01*
X20066Y154153D02*
X27178Y154153D01*
X27610Y150139D02*
X20066Y150139D01*
X20066Y146101D02*
X31623Y146101D01*
X31267Y142088D02*
X20066Y142088D01*
X20066Y138049D02*
X27229Y138049D01*
X27178Y134036D02*
X20066Y134036D01*
X20066Y129997D02*
X27178Y129997D01*
X27178Y125984D02*
X20066Y125984D01*
X20066Y121945D02*
X30378Y121945D01*
X34417Y117932D02*
X20066Y117932D01*
D20*
X42672Y131572D02*
X42672Y156972D01*
X42672Y182372D01*
X42672Y207772D01*
X42672Y220472D01*
X93472Y271272D01*
X423672Y271272D01*
X398272Y245872D01*
X398272Y207772D01*
X391922Y195072D02*
X423672Y195072D01*
X449072Y220472D01*
X487172Y220472D02*
X442722Y176022D01*
X360172Y176022D01*
X328422Y176022D01*
X303022Y201422D01*
X303022Y233172D01*
X290322Y245872D01*
X245872Y245872D01*
X233172Y233172D01*
X233172Y188722D01*
X226822Y182372D01*
X214122Y182372D01*
X195072Y201422D01*
X195072Y207772D01*
X182372Y195072D02*
X220472Y156972D01*
X226822Y156972D01*
X239522Y144272D01*
X245872Y137922D02*
X245872Y131572D01*
X220472Y131572D02*
X220472Y106172D01*
X182372Y106172D01*
X169672Y118872D01*
X169672Y131572D01*
X144272Y131572D02*
X144272Y144272D01*
X131572Y156972D01*
X93472Y156972D01*
X68072Y131572D01*
X68072Y156972D02*
X80772Y169672D01*
X163322Y169672D01*
X195072Y137922D01*
X195072Y131572D01*
X220472Y131572D02*
X220472Y137922D01*
X176022Y182372D01*
X169672Y188722D01*
X169672Y207772D01*
X182372Y195072D02*
X182372Y226822D01*
X169672Y239522D01*
X99822Y239522D01*
X68072Y207772D01*
X68072Y182372D02*
X80772Y182372D01*
X106172Y207772D01*
X118872Y207772D01*
X144272Y207772D02*
X144272Y195072D01*
X156972Y182372D01*
X176022Y182372D01*
X220472Y207772D02*
X220472Y245872D01*
X233172Y258572D01*
X372872Y258572D01*
X385572Y245872D01*
X385572Y201422D01*
X391922Y195072D01*
X360172Y176022D02*
X347472Y188722D01*
X347472Y207772D01*
X315722Y150622D02*
X271272Y195072D01*
X271272Y207772D01*
X245872Y207772D02*
X245872Y169672D01*
X271272Y144272D01*
X271272Y131572D01*
X271272Y118872D01*
X258572Y106172D01*
X220472Y106172D01*
X307594Y80772D02*
X309372Y80772D01*
X347472Y118872D01*
X347472Y131572D01*
X372872Y131572D02*
X372872Y118872D01*
X334772Y80772D01*
X336550Y80772D01*
X398272Y80772D02*
X423672Y106172D01*
X442722Y87122D01*
X442722Y80772D01*
X468122Y80772D02*
X468122Y99822D01*
X449072Y118872D01*
X423672Y106172D02*
X423672Y150622D01*
X315722Y150622D01*
X423672Y150622D02*
X474472Y150622D01*
X487172Y163322D01*
X487172Y118872D01*
X525272Y144272D02*
X525272Y80772D01*
X563372Y139700D02*
X558800Y144272D01*
X525272Y144272D01*
X487172Y163322D02*
X518922Y195072D01*
X525272Y195072D01*
X525272Y245872D01*
X499872Y271272D01*
X423672Y271272D01*
D21*
X271272Y131572D02*
X271272Y125222D01*
M02*
